<?xml version="1.0" encoding="UTF-8" standalone="no"?><!DOCTYPE svg PUBLIC "-//W3C//DTD SVG 1.1//EN" "http://www.w3.org/Graphics/SVG/1.1/DTD/svg11.dtd"><svg width="100%" height="100%" viewBox="0 0 630 80" version="1.1" xmlns="http://www.w3.org/2000/svg" xmlns:xlink="http://www.w3.org/1999/xlink" xml:space="preserve" xmlns:serif="http://www.serif.com/" style="fill-rule:evenodd;clip-rule:evenodd;stroke-linejoin:round;stroke-miterlimit:2;"><g><path d="M44.746,43.517l0,14.916l9.267,0c6.604,0 9.416,-3.2 9.416,-7.741c0,-4.425 -3.108,-7.175 -9.446,-7.175l-9.237,0Zm0,-4.125l7.654,0c6.546,0 9.533,-2.988 9.533,-7.325c0,-5.021 -2.958,-7.292 -9.325,-7.292l-7.862,0l0,14.617Zm-5.8,23.645l0,-42.837l13.662,0c10.521,0 15.096,4.246 15.096,11.179c0,4.217 -2.633,7.954 -8.041,9.625c6.245,1.229 9.475,4.488 9.475,9.838c0,7.262 -5.471,12.195 -15.038,12.195l-15.154,0Z" style="fill:#004685;fill-rule:nonzero;"/><path d="M81.813,44.592l16.47,0c0,-4.934 -2.779,-8.396 -7.65,-8.396c-5.145,0 -8.104,3.137 -8.82,8.396Zm21.254,1.229c0,1.671 -0.3,2.092 -1.288,2.092l-20.146,0c0.15,7.62 3.946,11.358 9.625,11.358c5.321,0 7.563,-2.929 8.909,-2.929c0.45,0 0.779,0.179 1.016,0.508l1.496,1.942c-2.633,3.2 -7.533,4.662 -11.871,4.662c-8.366,0 -14.437,-5.737 -14.437,-16.171c0,-8.487 5.35,-15.004 14.141,-15.004c7.263,0 12.555,4.933 12.555,13.542Z" style="fill:#004685;fill-rule:nonzero;"/><path d="M111.167,63.037l0,-30.283l3.05,0c1.162,0 1.491,0.392 1.641,1.467l0.359,4.721c2.066,-4.213 5.112,-6.725 9.208,-6.725c1.675,0 2.992,0.391 4.154,1.075l-0.683,3.979c-0.154,0.504 -0.45,0.75 -0.929,0.75c-0.567,0 -1.646,-0.575 -3.709,-0.575c-3.704,0 -6.1,2.212 -7.77,6.312l0,19.279l-5.321,0Z" style="fill:#004685;fill-rule:nonzero;"/><path d="M138.787,55.742l0,-18.53l-3.645,0c-0.629,0 -1.138,-0.362 -1.138,-1.17l0,-2.117l4.963,-0.633l1.229,-9.355c0.087,-0.6 0.533,-1.016 1.221,-1.016l2.691,0l0,10.429l8.671,0l0,3.862l-8.671,0l0,18.171c0,2.542 1.375,3.767 3.317,3.767c2.242,0 3.2,-1.433 3.829,-1.433c0.267,0 0.538,0.179 0.746,0.508l1.554,2.542c-1.821,1.704 -4.571,2.75 -7.321,2.75c-4.787,0 -7.446,-2.75 -7.446,-7.775Z" style="fill:#004685;fill-rule:nonzero;"/><path d="M164.433,44.592l16.475,0c0,-4.934 -2.779,-8.396 -7.654,-8.396c-5.141,0 -8.1,3.137 -8.821,8.396Zm21.259,1.229c0,1.671 -0.3,2.092 -1.288,2.092l-20.15,0c0.154,7.62 3.95,11.358 9.625,11.358c5.325,0 7.567,-2.929 8.913,-2.929c0.45,0 0.775,0.179 1.016,0.508l1.492,1.942c-2.633,3.2 -7.529,4.662 -11.867,4.662c-8.37,0 -14.437,-5.737 -14.437,-16.171c0,-8.487 5.35,-15.004 14.137,-15.004c7.263,0 12.559,4.933 12.559,13.542Z" style="fill:#004685;fill-rule:nonzero;"/><rect x="194.446" y="19.004" width="5.321" height="44.033" style="fill:#004685;fill-rule:nonzero;"/><path d="M227.987,37.75c-0.237,0.446 -0.599,0.654 -1.104,0.654c-1.17,0 -2.904,-2.15 -7.058,-2.15c-3.588,0 -5.829,1.942 -5.829,4.392c0,6.221 15.696,3.321 15.696,13.125c0,5.558 -4.067,9.746 -11.45,9.746c-4.213,0 -7.713,-1.525 -10.105,-3.679l1.255,-2.03c0.333,-0.512 0.716,-0.808 1.437,-0.808c1.463,0 2.867,2.687 7.684,2.687c4.183,0 6.187,-2.3 6.187,-4.991c0,-6.667 -15.754,-3.196 -15.754,-13.629c0,-4.663 3.912,-8.788 10.762,-8.788c3.975,0 7.175,1.346 9.475,3.525l-1.196,1.946Z" style="fill:#004685;fill-rule:nonzero;"/><path d="M238.208,63.037l0,-30.283l3.171,0c0.746,0 1.225,0.363 1.434,1.108l0.391,3.109c2.238,-2.75 4.9,-4.692 8.575,-4.692c4.096,0 6.609,2.45 7.713,6.304c1.675,-4.425 5.683,-6.304 9.658,-6.304c6.337,0 10.104,4.154 10.104,11.479l0,19.279l-5.321,0l0,-19.279c0,-4.754 -2.125,-7.237 -6.066,-7.237c-3.5,0 -6.521,2.454 -6.521,7.237l0,19.279l-5.321,0l0,-19.279c0,-4.875 -2.004,-7.237 -5.737,-7.237c-2.63,0 -4.876,1.525 -6.759,3.946l0,22.57l-5.321,0Z" style="fill:#004685;fill-rule:nonzero;"/><path d="M306.096,55.712l0,-6.308c-9.804,0.329 -13.508,2.513 -13.508,5.829c0,3.23 2.179,4.546 4.929,4.546c3.679,0 6.187,-1.525 8.579,-4.067Zm5.233,7.325l-2.362,0c-1.046,0 -1.671,-0.208 -1.884,-1.254l-0.596,-2.812c-3.199,2.871 -5.891,4.546 -10.554,4.546c-4.662,0 -8.458,-2.571 -8.458,-8.046c0,-4.779 4.9,-9.117 18.621,-9.442l0,-2.362c0,-4.692 -2.029,-7.146 -5.979,-7.146c-5.167,0 -6.813,3.2 -8.638,3.2c-0.717,0 -1.254,-0.421 -1.583,-0.988l-0.958,-1.704c3.35,-3.229 7.145,-4.812 11.837,-4.812c6.817,0 10.554,4.633 10.554,11.45l0,19.37Z" style="fill:#004685;fill-rule:nonzero;"/><path d="M321.971,63.037l0,-30.283l3.171,0c0.741,0 1.225,0.363 1.433,1.108l0.417,3.288c2.633,-2.9 5.77,-4.871 10.045,-4.871c6.605,0 10.134,4.6 10.134,11.479l0,19.279l-5.325,0l0,-19.279c0,-4.575 -2.058,-7.237 -6.363,-7.237c-3.137,0 -5.887,1.612 -8.191,4.212l0,22.304l-5.321,0Z" style="fill:#004685;fill-rule:nonzero;"/><path d="M357.304,63.037l0,-30.283l3.167,0c0.746,0 1.229,0.363 1.437,1.108l0.417,3.288c2.629,-2.9 5.771,-4.871 10.046,-4.871c6.604,0 10.133,4.6 10.133,11.479l0,19.279l-5.321,0l0,-19.279c0,-4.575 -2.066,-7.237 -6.366,-7.237c-3.138,0 -5.888,1.612 -8.192,4.212l0,22.304l-5.321,0Z" style="fill:#004685;fill-rule:nonzero;"/><path d="M418.917,27.675c-0.45,0.867 -0.988,1.196 -1.796,1.196c-1.613,0 -3.767,-2.992 -8.7,-2.992c-4.425,0 -6.696,2.242 -6.696,5.442c0,8.191 19.937,3.796 19.937,18.175c0,7.8 -5.47,14.021 -15.004,14.021c-5.5,0 -10.854,-2.242 -14.2,-5.679l2.334,-3.855c0.446,-0.571 1.075,-0.991 1.82,-0.991c2.005,0 4.338,3.945 10.284,3.945c4.571,0 7.204,-2.241 7.204,-6.308c0,-9.146 -19.908,-3.075 -19.908,-18.887c0,-6.338 5.141,-12.409 14.141,-12.409c5.109,0 9.534,1.675 12.555,4.546l-1.971,3.796Z" style="fill:#004685;fill-rule:nonzero;"/><path d="M432.308,55.029l0,-17.133l-3.108,0c-0.808,0 -1.467,-0.509 -1.467,-1.554l0,-2.929l4.934,-0.805l1.554,-8.375c0.15,-0.804 0.779,-1.25 1.642,-1.25l3.829,0l0,9.655l8.07,0l0,5.258l-8.07,0l0,16.621c0,1.912 1.046,3.05 2.633,3.05c1.821,0 2.358,-1.017 3.104,-1.017c0.45,0 0.658,0.213 0.992,0.654l2.208,3.588c-2.15,1.795 -5.054,2.725 -8.042,2.725c-5.291,0 -8.279,-3.2 -8.279,-8.488Z" style="fill:#004685;fill-rule:nonzero;"/><path d="M464.146,32.367l0,30.67l-7.388,0l0,-30.67l7.388,0Zm-3.679,-4.305c-2.542,0 -4.663,-2.12 -4.663,-4.633c0,-2.629 2.121,-4.725 4.663,-4.725c2.6,0 4.783,2.096 4.783,4.725c0,2.513 -2.183,4.633 -4.783,4.633Z" style="fill:#004685;fill-rule:nonzero;"/><path d="M477.146,63.037l0,-25.108l-2.659,-0.421c-1.166,-0.208 -1.916,-0.779 -1.916,-1.854l0,-3.016l4.575,0l0,-2.271c0,-7.03 4.367,-11.305 11.45,-11.305c1.404,0 2.721,0.184 3.946,0.571l-0.15,3.704c-0.088,1.167 -1.225,1.288 -2.542,1.288c-3.496,0 -5.563,1.404 -5.563,5.979l0,2.034l7.988,0l0,5.258l-7.746,0l0,25.141l-7.383,0Z" style="fill:#004685;fill-rule:nonzero;"/><path d="M502.346,55.029l0,-17.133l-3.108,0c-0.805,0 -1.463,-0.509 -1.463,-1.554l0,-2.929l4.933,-0.805l1.55,-8.375c0.154,-0.804 0.779,-1.25 1.646,-1.25l3.825,0l0,9.655l8.075,0l0,5.258l-8.075,0l0,16.621c0,1.912 1.046,3.05 2.634,3.05c1.82,0 2.358,-1.017 3.108,-1.017c0.45,0 0.654,0.213 0.987,0.654l2.209,3.588c-2.15,1.795 -5.05,2.725 -8.042,2.725c-5.288,0 -8.279,-3.2 -8.279,-8.488Z" style="fill:#004685;fill-rule:nonzero;"/><path d="M532.9,32.367l0,19.491c0,3.738 1.733,5.888 5.2,5.888c2.538,0 4.754,-1.196 6.754,-3.2l0,-22.179l7.384,0l0,30.67l-4.513,0c-0.958,0 -1.583,-0.45 -1.887,-1.345l-0.505,-2.45c-2.541,2.541 -5.354,4.275 -9.483,4.275c-6.687,0 -10.337,-4.813 -10.337,-11.659l0,-19.491l7.387,0Z" style="fill:#004685;fill-rule:nonzero;"/><path d="M562.7,63.037l0,-30.67l4.512,0c0.959,0 1.584,0.45 1.888,1.345l0.504,2.421c2.479,-2.57 5.383,-4.246 9.479,-4.246c6.725,0 10.342,4.784 10.342,11.63l0,19.52l-7.383,0l0,-19.52c0,-3.738 -1.738,-5.888 -5.2,-5.888c-2.542,0 -4.759,1.221 -6.759,3.229l0,22.179l-7.383,0Z" style="fill:#004685;fill-rule:nonzero;"/><path d="M615.729,41.933c0,-3.021 -1.821,-4.933 -5.437,-4.933c-3.621,0 -5.442,1.912 -5.442,4.933c0,2.9 1.821,5.021 5.442,5.021c3.646,0 5.437,-2.062 5.437,-5.021Zm-9.867,19.042c-1.67,0.925 -2.779,2.15 -2.779,3.796c0,2.183 2.038,3.8 7.417,3.8c5.533,0 7.892,-1.767 7.892,-4.158c0,-3.646 -6.967,-2.721 -12.53,-3.438Zm11.305,-27.562l8.816,0l0,2.749c0,0.926 -0.416,1.409 -1.583,1.613l-2.75,0.513c0.388,1.045 0.629,2.179 0.629,3.466c0,6.067 -5.141,9.921 -11.987,9.921c-1.171,0 -2.275,-0.117 -3.38,-0.325c-0.958,0.567 -1.437,1.225 -1.437,1.942c0,4.904 19.733,-1.792 19.733,9.866c0,5.379 -5.441,10.671 -14.829,10.671c-9.296,0 -13.691,-3.887 -13.691,-8.104c0,-2.867 1.854,-4.779 4.962,-5.946c-1.521,-0.837 -2.513,-2.15 -2.513,-4.396c0,-1.825 1.259,-4.033 3.98,-5.379c-3.113,-1.675 -4.992,-4.512 -4.992,-8.25c0,-6.1 5.142,-9.925 12.167,-9.925c2.629,0 4.962,0.538 6.875,1.584Z" style="fill:#004685;fill-rule:nonzero;"/><rect x="0" y="3.012" width="5.329" height="76.154" style="fill:#004685;fill-rule:nonzero;"/></g></svg>