<?xml version="1.0" encoding="UTF-8" standalone="no"?>
<!-- Created with Inkscape (http://www.inkscape.org/) -->

<svg
   width="65.16761mm"
   height="44.198299mm"
   viewBox="0 0 65.16761 44.198299"
   version="1.1"
   id="svg5"
   xml:space="preserve"
   xmlns:xlink="http://www.w3.org/1999/xlink"
   xmlns="http://www.w3.org/2000/svg"
   xmlns:svg="http://www.w3.org/2000/svg"><defs
     id="defs2"><linearGradient
       id="linearGradient3918"><stop
         style="stop-color:#ffffff;stop-opacity:1;"
         offset="0"
         id="stop3916" /></linearGradient><rect
       x="73.15136"
       y="374.35126"
       width="154.00217"
       height="74.098679"
       id="rect3260-5-6-2" /><rect
       x="73.15136"
       y="374.35126"
       width="154.00217"
       height="74.098679"
       id="rect3260-5-6-3-6" /><linearGradient
       xlink:href="#linearGradient3918"
       id="linearGradient25535"
       gradientUnits="userSpaceOnUse"
       gradientTransform="translate(94.026757,-163.65282)"
       x1="42.160393"
       y1="206.83862"
       x2="56.136116"
       y2="206.83862" /></defs><g
     id="layer1"
     transform="translate(-123.16089,-10.511181)"><path
       style="fill:#ffd23f;fill-opacity:1;stroke:#ffd23f;stroke-width:0.547114;stroke-linecap:round;stroke-linejoin:round;stroke-dasharray:none;stroke-opacity:1;paint-order:fill markers stroke"
       d="m 182.55732,12.844471 -7.69653,14.64501 5.95188,-2.13898 -0.36631,8.75277 7.60862,-14.291 -6.45803,2.20606 z"
       id="path175-5-4-3-5-1-6-8" /><path
       d="m 130.54719,19.778391 c 1.51459,-0.37767 2.91616,-1.78041 2.91616,-4.07338 0,-3.23712 -2.26059,-4.69383 -6.10358,-4.69383 h -3.68476 v 18.5865 h 4.29512 c 3.61693,0 6.17139,-1.34881 6.17139,-5.2873 0,-3.15622 -1.78586,-4.15432 -3.59433,-4.53199 z m -2.96136,-6.74401 c 2.30579,0 3.68475,0.56649 3.68475,2.85946 0,1.96926 -1.35635,2.99436 -3.097,2.99436 h -2.35101 v -5.85382 z m 0.3843,14.51312 h -2.14756 v -6.69007 h 2.55446 c 1.87629,0 3.50391,0.83626 3.50391,3.45295 0,2.6976 -1.65023,3.23712 -3.91081,3.23712 z"
       style="font-size:11.702px;font-family:'Fira Sans';-inkscape-font-specification:'Fira Sans, Normal';letter-spacing:0px;word-spacing:0px;white-space:pre;fill:#3bceac;fill-opacity:1;stroke:#3bceac;stroke-width:0.999999;stroke-linecap:round;stroke-linejoin:round;stroke-opacity:1;paint-order:fill markers stroke"
       id="path9298-6-0-0-2-8" /><path
       d="m 146.38053,11.011181 h -8.43199 v 18.5865 h 8.61283 v -2.05018 h -6.46527 v -6.36634 h 5.24456 v -2.0502 h -5.24456 v -6.06961 h 6.03576 z"
       style="font-size:11.702px;font-family:'Fira Sans';-inkscape-font-specification:'Fira Sans, Normal';letter-spacing:0px;word-spacing:0px;white-space:pre;fill:#3bceac;fill-opacity:1;stroke:#3bceac;stroke-width:0.999999;stroke-linecap:round;stroke-linejoin:round;stroke-opacity:1;paint-order:fill markers stroke"
       id="path9300-5-9-3-1-3" /><path
       d="m 160.30159,11.011181 h -11.12208 v 2.18505 h 4.43075 v 16.40145 h 2.14756 v -16.40145 h 4.31771 z"
       style="font-size:11.702px;font-family:'Fira Sans';-inkscape-font-specification:'Fira Sans, Normal';letter-spacing:0px;word-spacing:0px;white-space:pre;fill:#3bceac;fill-opacity:1;stroke:#3bceac;stroke-width:0.999999;stroke-linecap:round;stroke-linejoin:round;stroke-opacity:1;paint-order:fill markers stroke"
       id="path9302-6-6-0-7-1" /><path
       d="m 171.54174,29.597681 h 2.26059 l -4.9733,-18.5865 h -2.71269 l -4.9959,18.5865 h 2.17016 l 1.1755,-4.66687 h 5.90014 z m -6.5557,-6.74402 2.44143,-9.71137 2.41883,9.71137 z"
       style="font-size:11.702px;font-family:'Fira Sans';-inkscape-font-specification:'Fira Sans, Normal';letter-spacing:0px;word-spacing:0px;white-space:pre;fill:#3bceac;fill-opacity:1;stroke:#3bceac;stroke-width:0.999999;stroke-linecap:round;stroke-linejoin:round;stroke-opacity:1;paint-order:fill markers stroke"
       id="path9304-3-3-4-8-8" /><g
       aria-label="BREAK"
       transform="matrix(1.9317948,0,0,-2.3052509,-19.953531,920.17503)"
       id="text3258-5-9-5-9-8-4-5-9"
       style="font-size:11.702px;white-space:pre;shape-inside:url(#rect3260-5-6-2);display:inline;fill:#540d6e;fill-opacity:1;stroke:#540d6e;stroke-width:0.473871;stroke-linecap:round;stroke-linejoin:round;stroke-opacity:1;paint-order:fill markers stroke"><path
         d="m 77.877998,380.67259 c 0.784034,-0.16383 1.509558,-0.77233 1.509558,-1.767 0,-1.40424 -1.1702,-2.03615 -3.159539,-2.03615 h -1.907426 v 8.06268 h 2.22338 c 1.872319,0 3.194645,-0.5851 3.194645,-2.29359 0,-1.36914 -0.924458,-1.80211 -1.860618,-1.96594 z m -1.532961,-2.9255 c 1.193603,0 1.907425,0.24574 1.907425,1.24041 0,0.85425 -0.70212,1.29893 -1.603173,1.29893 h -1.217008 v -2.53934 z m 0.198934,6.29568 h -1.11169 v -2.9021 h 1.322326 c 0.971265,0 1.813809,0.36276 1.813809,1.49786 0,1.1702 -0.854246,1.40424 -2.024445,1.40424 z"
         style="font-family:'Fira Sans';-inkscape-font-specification:'Fira Sans, Normal';fill:#540d6e;fill-opacity:1;stroke:#540d6e;stroke-opacity:1"
         id="path9307-4-5-4-7-6" /><path
         d="m 85.730038,384.93212 h 1.322326 l -2.176572,-3.61592 c 1.158498,-0.35106 1.743598,-1.02977 1.743598,-2.16487 0,-1.50956 -1.05318,-2.28189 -3.065924,-2.28189 h -2.118062 v 8.06268 h 1.11169 v -3.41698 h 1.252114 z m -3.182944,-4.27123 v -2.9255 h 0.99467 c 1.322326,0 1.895724,0.40957 1.895724,1.41594 0,1.08829 -0.64361,1.50956 -1.767002,1.50956 z"
         style="font-family:'Fira Sans';-inkscape-font-specification:'Fira Sans, Normal';fill:#540d6e;fill-opacity:1;stroke:#540d6e;stroke-opacity:1"
         id="path9309-8-6-4-4-4" /><path
         d="m 92.879954,376.86944 h -4.364846 v 8.06268 h 4.458462 v -0.88935 h -3.346772 v -2.76167 h 2.714864 v -0.88936 h -2.714864 v -2.63295 h 3.124434 z"
         style="font-family:'Fira Sans';-inkscape-font-specification:'Fira Sans, Normal';fill:#540d6e;fill-opacity:1;stroke:#540d6e;stroke-opacity:1"
         id="path9311-12-1-7-1-3" /><path
         d="m 99.07031,384.93212 h 1.1702 l -2.57444,-8.06268 h -1.40424 l -2.586142,8.06268 h 1.123392 l 0.608504,-2.02445 h 3.054222 z m -3.39358,-2.9255 1.263816,-4.21272 1.252114,4.21272 z"
         style="font-family:'Fira Sans';-inkscape-font-specification:'Fira Sans, Normal';fill:#540d6e;fill-opacity:1;stroke:#540d6e;stroke-opacity:1"
         id="path9313-9-1-6-8-3" /><path
         d="m 102.59261,376.86944 h -1.11169 v 8.06268 h 1.11169 z m 4.38825,0 h -1.26381 l -3.06593,3.75634 3.18295,4.30634 h 1.36913 l -3.27656,-4.37655 z"
         style="font-family:'Fira Sans';-inkscape-font-specification:'Fira Sans, Normal';fill:#540d6e;fill-opacity:1;stroke:#540d6e;stroke-opacity:1"
         id="path9315-3-5-3-5-3" /></g><path
       id="rect3912-0-9-9-1-9-8"
       style="fill:url(#linearGradient25535);stroke-linecap:round;stroke-linejoin:round;stroke-opacity:0;paint-order:fill markers stroke"
       d="m 136.18716,31.662521 h 13.97572 v 23.04696 h -13.97572 z" /><g
       aria-label="R"
       transform="matrix(1.9317948,0,0,2.3052509,-5.6908733,-836.04868)"
       id="text3258-5-9-7-4-0-8-7-7-6"
       style="font-size:11.702px;white-space:pre;shape-inside:url(#rect3260-5-6-3-6);display:inline;fill:#540d6e;fill-opacity:1;stroke:#540d6e;stroke-width:0.473871;stroke-linecap:round;stroke-linejoin:round;stroke-opacity:1;paint-order:fill markers stroke"><path
         d="m 78.615224,384.93212 h 1.322326 l -2.176572,-3.61592 c 1.158498,-0.35106 1.743598,-1.02977 1.743598,-2.16487 0,-1.50956 -1.05318,-2.28189 -3.065923,-2.28189 h -2.118062 v 8.06268 h 1.11169 v -3.41698 h 1.252114 z m -3.182943,-4.27123 v -2.9255 h 0.99467 c 1.322325,0 1.895723,0.40957 1.895723,1.41594 0,1.08829 -0.64361,1.50956 -1.767001,1.50956 z"
         style="font-family:'Fira Sans';-inkscape-font-specification:'Fira Sans, Normal';fill:#540d6e;fill-opacity:1;stroke:#540d6e;stroke-opacity:1"
         id="path9319-8-4-5-5-0" /></g></g></svg>
