<?xml version="1.0" encoding="UTF-8" standalone="no"?>
<!-- Created with Inkscape (http://www.inkscape.org/) -->

<svg
   width="279.50146mm"
   height="128.25203mm"
   viewBox="0 0 279.50146 128.25203"
   version="1.1"
   id="svg5"
   xml:space="preserve"
   xmlns:inkscape="http://www.inkscape.org/namespaces/inkscape"
   xmlns:sodipodi="http://sodipodi.sourceforge.net/DTD/sodipodi-0.dtd"
   xmlns="http://www.w3.org/2000/svg"
   xmlns:svg="http://www.w3.org/2000/svg"><sodipodi:namedview
     id="namedview7"
     pagecolor="#ffffff"
     bordercolor="#000000"
     borderopacity="0.25"
     inkscape:showpageshadow="2"
     inkscape:pageopacity="0.0"
     inkscape:pagecheckerboard="0"
     inkscape:deskcolor="#d1d1d1"
     inkscape:document-units="mm"
     showgrid="false" /><defs
     id="defs2" /><g
     inkscape:label="Layer 1"
     inkscape:groupmode="layer"
     id="layer1"
     transform="translate(-164.58246,-255.15907)"><g
       id="g1169"
       transform="translate(177.84637,186.22101)"><path
         style="fill:#f7e706;stroke-width:0.264583"
         d="M 47.388798,146.63254 C 44.467549,139.927 37.873146,134.58175 30.700826,133.10571 l -1.628172,-0.33507 1.852084,-0.19462 c 2.275956,-0.23915 6.062241,-1.47806 8.250205,-2.69954 3.707612,-2.06986 6.839871,-5.17634 9.073761,-8.9991 0.585515,-1.00197 1.064136,-1.70459 1.063599,-1.56137 -5.3e-4,0.14321 -0.76236,3.39717 -1.69294,7.23103 l -1.691965,6.97066 1.168673,7.16986 c 0.642768,3.94342 1.135282,7.27002 1.094475,7.39244 -0.04081,0.12242 -0.401593,-0.52893 -0.801748,-1.44746 z"
         id="path1183" /><path
         style="fill:#95ac98;stroke-width:0.264583"
         d="m 14.19348,197.04174 c 0.402183,-0.0608 0.997495,-0.0592 1.322917,0.004 0.325421,0.0628 -0.0036,0.11256 -0.731242,0.11058 -0.727605,-0.002 -0.993857,-0.0534 -0.591675,-0.11419 z m 8.069239,0.003 c 0.329117,-0.0633 0.805367,-0.0609 1.058333,0.005 0.252965,0.0662 -0.01633,0.118 -0.598398,0.11506 -0.582083,-0.003 -0.789053,-0.0571 -0.459935,-0.1204 z m 60.85108,5.3e-4 c 0.327422,-0.0631 0.863203,-0.0631 1.190625,0 0.327422,0.0631 0.05953,0.11466 -0.595313,0.11466 -0.654843,0 -0.922734,-0.0516 -0.595312,-0.11466 z m 8.734335,-5.3e-4 c 0.329118,-0.0633 0.805368,-0.0609 1.058333,0.005 0.252966,0.0662 -0.01633,0.118 -0.598397,0.11506 -0.582084,-0.003 -0.789054,-0.0571 -0.459936,-0.1204 z m 63.232326,0.0119 c 0.18191,-0.0734 0.47956,-0.0734 0.66146,0 0.1819,0.0734 0.0331,0.13345 -0.33073,0.13345 -0.3638,0 -0.51263,-0.06 -0.33073,-0.13345 z m 10.31875,0 c 0.18191,-0.0734 0.47956,-0.0734 0.66146,0 0.1819,0.0734 0.0331,0.13345 -0.33073,0.13345 -0.3638,0 -0.51263,-0.06 -0.33073,-0.13345 z m 62.97084,-0.0115 c 0.32742,-0.0631 0.8632,-0.0631 1.19062,0 0.32742,0.0631 0.0595,0.11466 -0.59531,0.11466 -0.65485,0 -0.92274,-0.0516 -0.59531,-0.11466 z m 8.73125,0 c 0.32742,-0.0631 0.8632,-0.0631 1.19062,0 0.32742,0.0631 0.0595,0.11466 -0.59531,0.11466 -0.65485,0 -0.92274,-0.0516 -0.59531,-0.11466 z M 11.019877,196.78365 c 0.257432,-0.0671 0.614619,-0.0627 0.79375,0.01 0.179131,0.0725 -0.03149,0.12736 -0.468056,0.12197 -0.436562,-0.005 -0.583126,-0.0647 -0.325694,-0.13177 z m 14.16671,0.003 c 0.190994,-0.0764 0.4192,-0.067 0.507119,0.0209 0.08792,0.0879 -0.06835,0.15045 -0.347266,0.13896 -0.308226,-0.0127 -0.370919,-0.0754 -0.159853,-0.15985 z m 54.889539,-0.003 c 0.257431,-0.0671 0.614619,-0.0627 0.79375,0.01 0.179131,0.0725 -0.03149,0.12736 -0.468056,0.12197 -0.436563,-0.005 -0.583126,-0.0647 -0.325694,-0.13177 z m 14.943923,0.008 c 0.181901,-0.0734 0.479557,-0.0734 0.661458,0 0.181901,0.0734 0.03307,0.13345 -0.330729,0.13345 -0.363802,0 -0.51263,-0.06 -0.330729,-0.13345 z m 130.175001,0 c 0.1819,-0.0734 0.47955,-0.0734 0.66145,0 0.18191,0.0734 0.0331,0.13345 -0.33072,0.13345 -0.36381,0 -0.51263,-0.06 -0.33073,-0.13345 z m 15.61041,0 c 0.1819,-0.0734 0.47956,-0.0734 0.66146,0 0.1819,0.0734 0.0331,0.13345 -0.33073,0.13345 -0.3638,0 -0.51263,-0.06 -0.33073,-0.13345 z M 9.0470036,196.52167 c 0.1909948,-0.0764 0.4191979,-0.067 0.5071189,0.0209 0.087918,0.0879 -0.068352,0.15045 -0.3472656,0.13896 -0.3082263,-0.0127 -0.3709194,-0.0754 -0.1598533,-0.15985 z m 17.7270834,0 c 0.190994,-0.0764 0.4192,-0.067 0.507119,0.0209 0.08792,0.0879 -0.06835,0.15045 -0.347266,0.13896 -0.308226,-0.0127 -0.370919,-0.0754 -0.159853,-0.15985 z m 51.329165,0 c 0.190995,-0.0764 0.419201,-0.067 0.507119,0.0209 0.08792,0.0879 -0.06835,0.15045 -0.347265,0.13896 -0.308227,-0.0127 -0.37092,-0.0754 -0.159854,-0.15985 z m 19.05,0 c 0.190995,-0.0764 0.4192,-0.067 0.507119,0.0209 0.08792,0.0879 -0.06835,0.15045 -0.347266,0.13896 -0.308226,-0.0127 -0.370919,-0.0754 -0.159853,-0.15985 z m 126.206248,0 c 0.191,-0.0764 0.41921,-0.067 0.50713,0.0209 0.0879,0.0879 -0.0684,0.15045 -0.34727,0.13896 -0.30824,-0.0127 -0.37092,-0.0754 -0.15986,-0.15985 z m 19.57917,0 c 0.191,-0.0764 0.4192,-0.067 0.50712,0.0209 0.0879,0.0879 -0.0684,0.15045 -0.34726,0.13896 -0.30824,-0.0127 -0.37092,-0.0754 -0.15986,-0.15985 z m 1.5875,-0.26458 c 0.191,-0.0764 0.4192,-0.067 0.50712,0.0209 0.0879,0.0879 -0.0684,0.15045 -0.34726,0.13896 -0.30824,-0.0127 -0.37092,-0.0754 -0.15986,-0.15985 z M 61.450362,189.36024 c -0.329108,-0.41964 -0.319749,-0.429 0.0999,-0.0999 0.254661,0.19972 0.463021,0.40808 0.463021,0.46302 0,0.21776 -0.217274,0.0776 -0.562917,-0.36313 z m 52.156668,0.36313 c 0,-0.0549 0.20836,-0.2633 0.46302,-0.46302 0.41964,-0.32911 0.429,-0.31975 0.0999,0.0999 -0.34564,0.44073 -0.56291,0.58089 -0.56291,0.36313 z m -70.114584,-0.77665 c 0,-0.0455 0.386953,-0.43249 0.859895,-0.85989 l 0.859896,-0.77711 -0.777105,0.8599 c -0.724371,0.80154 -0.942686,0.98151 -0.942686,0.7771 z m 71.966664,-1.07544 c 0,-0.0549 0.20836,-0.2633 0.46302,-0.46302 0.41965,-0.3291 0.42901,-0.31975 0.0999,0.0999 -0.34565,0.44073 -0.56292,0.58089 -0.56292,0.36312 z M 48.637173,171.96389 c -1.11e-4,-4.51115 0.03597,-6.39381 0.08017,-4.1837 0.0442,2.21011 0.0443,5.90105 2.03e-4,8.20208 -0.04409,2.30104 -0.08026,0.49276 -0.08038,-4.01838 z m -32.959727,6.54844 c -0.329107,-0.41965 -0.319749,-0.42901 0.0999,-0.0999 0.254661,0.19972 0.463021,0.40808 0.463021,0.46302 0,0.21776 -0.217273,0.0776 -0.562917,-0.36312 z m 6.119167,0.36312 c 0,-0.0549 0.208359,-0.2633 0.463021,-0.46302 0.419645,-0.32911 0.429003,-0.31975 0.0999,0.0999 -0.345644,0.44072 -0.562917,0.58088 -0.562917,0.36312 z m -34.904111,-0.84819 c 0.0127,-0.30823 0.07539,-0.37092 0.159851,-0.15986 0.07643,0.191 0.06703,0.4192 -0.02088,0.50712 -0.08792,0.0879 -0.150452,-0.0683 -0.138964,-0.34726 z m 69.341718,-0.11025 c 0,-0.3638 0.06006,-0.51263 0.133454,-0.33073 0.0734,0.1819 0.0734,0.47956 0,0.66146 -0.0734,0.1819 -0.133454,0.0331 -0.133454,-0.33073 z m 209.26451,-0.15434 c 0.0127,-0.30822 0.0754,-0.37092 0.15986,-0.15985 0.0764,0.19099 0.067,0.4192 -0.0209,0.50712 -0.0879,0.0879 -0.15047,-0.0683 -0.13898,-0.34727 z m -136.49429,-0.50712 c 0.005,-0.43656 0.0647,-0.58312 0.13177,-0.32569 0.0671,0.25743 0.0627,0.61462 -0.01,0.79375 -0.0725,0.17913 -0.12736,-0.0315 -0.12197,-0.46806 z m 26.51391,0.0661 -0.50403,-0.59531 0.59531,0.50403 c 0.55945,0.47366 0.71576,0.68659 0.50403,0.68659 -0.0502,0 -0.3181,-0.26789 -0.59531,-0.59531 z m 72.88408,0.13229 c -0.32909,-0.41964 -0.31975,-0.429 0.0999,-0.0999 0.25466,0.19972 0.46302,0.40808 0.46302,0.46302 0,0.21776 -0.21728,0.0776 -0.56293,-0.36313 z m -108.12924,-0.7276 c 0.005,-0.43656 0.0647,-0.58313 0.13177,-0.3257 0.0671,0.25744 0.0627,0.61462 -0.01,0.79375 -0.0725,0.17913 -0.12736,-0.0315 -0.12197,-0.46805 z m 81.50147,-0.13229 c 0,-0.50933 0.0544,-0.71769 0.121,-0.46302 0.0666,0.25466 0.0666,0.67138 0,0.92604 -0.0666,0.25466 -0.121,0.0463 -0.121,-0.46302 z M 15.046674,132.93785 c 0,-24.37474 0.03114,-34.346225 0.06919,-22.15886 0.03806,12.18737 0.03806,32.13034 0,44.31771 -0.03805,12.18737 -0.06919,2.21589 -0.06919,-22.15885 z m 77.78748,0 c 0,-24.22922 0.03114,-34.141173 0.06921,-22.02656 0.03806,12.1146 0.03806,31.93851 0,44.05312 -0.03806,12.11461 -0.06921,2.20266 -0.06921,-22.02656 z m -106.098065,1.05833 c 0,-23.06505 0.03121,-32.50075 0.06935,-20.96823 0.03815,11.53253 0.03815,30.40393 0,41.93646 -0.03815,11.53253 -0.06935,2.09682 -0.06935,-20.96823 z m 240.761361,32.01458 c 0,-5.31151 0.0353,-7.4844 0.0785,-4.82864 0.0431,2.65575 0.0431,7.00153 0,9.65729 -0.0432,2.65575 -0.0785,0.48286 -0.0785,-4.82865 z m 10.31679,0.92604 c -1e-4,-4.51114 0.036,-6.3938 0.0802,-4.1837 0.0442,2.21012 0.0443,5.90105 2.1e-4,8.20209 -0.0441,2.30103 -0.0803,0.49276 -0.0804,-4.01839 z m 28.31206,-2.77812 c 0,-5.16599 0.0354,-7.27935 0.0788,-4.69635 0.0433,2.58299 0.0433,6.80971 0,9.3927 -0.0433,2.583 -0.0788,0.46964 -0.0788,-4.69635 z m -64.29498,-2.24896 c 1e-4,-4.65666 0.0361,-6.5244 0.08,-4.15052 0.0439,2.37387 0.0438,6.18387 -1.9e-4,8.46666 -0.044,2.28279 -0.0799,0.34053 -0.0798,-4.31614 z m -72.75986,-6.21771 c 0,-4.87494 0.0357,-6.86924 0.0794,-4.43177 0.0437,2.43748 0.0437,6.42607 0,8.86354 -0.0437,2.43748 -0.0794,0.44318 -0.0794,-4.43177 z m 35.62104,1.96233 c 0.0127,-0.30823 0.0754,-0.37092 0.15985,-0.15985 0.0764,0.19099 0.067,0.4192 -0.0209,0.50712 -0.0879,0.0879 -0.15045,-0.0684 -0.13896,-0.34727 z m -1.90672,-4.01285 c -0.32911,-0.41964 -0.31975,-0.429 0.0999,-0.0999 0.44073,0.34564 0.58089,0.56291 0.36313,0.56291 -0.0549,0 -0.2633,-0.20836 -0.46302,-0.46302 z m 71.96665,-0.79375 c -0.32909,-0.41964 -0.31975,-0.429 0.0999,-0.0999 0.44071,0.34564 0.58089,0.56291 0.36311,0.56291 -0.0549,0 -0.26329,-0.20836 -0.46302,-0.46302 z m 31.03179,-0.33073 c 0,-0.3638 0.0601,-0.51263 0.13345,-0.33073 0.0734,0.18191 0.0734,0.47956 0,0.66146 -0.0734,0.1819 -0.13345,0.0331 -0.13345,-0.33073 z m -243.107037,-1.4552 c 0.0011,-1.01865 0.049,-1.40295 0.106273,-0.854 0.05727,0.54895 0.05631,1.38239 -0.0021,1.85208 -0.05845,0.4697 -0.105312,0.0206 -0.104137,-0.99808 z m 138.256507,0.46302 c -0.3291,-0.41965 -0.31975,-0.42901 0.0999,-0.0999 0.44073,0.34564 0.58089,0.56292 0.36312,0.56292 -0.0549,0 -0.2633,-0.20836 -0.46302,-0.46302 z M 48.805001,151.03976 c 0.0127,-0.30823 0.07539,-0.37092 0.159851,-0.15986 0.07643,0.191 0.06703,0.4192 -0.02088,0.50712 -0.08792,0.0879 -0.150453,-0.0684 -0.138964,-0.34726 z m -0.264583,-1.5875 c 0.0127,-0.30823 0.07539,-0.37092 0.15985,-0.15986 0.07643,0.191 0.06703,0.4192 -0.02088,0.50712 -0.08792,0.0879 -0.150453,-0.0684 -0.138965,-0.34726 z m 182.243262,-1.10243 c -0.32909,-0.41965 -0.31975,-0.42901 0.0999,-0.0999 0.44071,0.34564 0.58089,0.56292 0.36311,0.56292 -0.0549,0 -0.26328,-0.20836 -0.46302,-0.46302 z m -207.20113,0.0232 c 0.181901,-0.0734 0.479557,-0.0734 0.661459,0 0.181901,0.0734 0.03307,0.13345 -0.33073,0.13345 -0.363802,0 -0.51263,-0.0601 -0.330729,-0.13345 z m 24.693284,-0.50828 c 0.0127,-0.30822 0.07539,-0.37092 0.159851,-0.15985 0.07643,0.19099 0.06703,0.4192 -0.02088,0.50712 -0.08792,0.0879 -0.150452,-0.0684 -0.138964,-0.34727 z m 108.689106,-0.83784 c -0.3291,-0.41965 -0.31975,-0.429 0.0999,-0.0999 0.44073,0.34565 0.58089,0.56292 0.36312,0.56292 -0.0549,0 -0.2633,-0.20836 -0.46302,-0.46302 z M 48.011251,146.27726 c 0.0127,-0.30823 0.07539,-0.37092 0.159851,-0.15986 0.07643,0.191 0.06703,0.41921 -0.02088,0.50712 -0.08792,0.0879 -0.150453,-0.0683 -0.138964,-0.34726 z m 180.920349,-0.0441 c -0.32909,-0.41965 -0.31975,-0.429 0.0999,-0.0999 0.44072,0.34565 0.5809,0.56292 0.36312,0.56292 -0.0549,0 -0.26329,-0.20836 -0.46302,-0.46302 z m -10.31874,-0.26458 c -0.32911,-0.41965 -0.31975,-0.42901 0.0999,-0.0999 0.44073,0.34564 0.58089,0.56292 0.36313,0.56292 -0.0549,0 -0.2633,-0.20836 -0.46302,-0.46302 z m -73.025,-0.26459 c -0.32911,-0.41964 -0.31975,-0.429 0.0999,-0.0999 0.25466,0.19972 0.46302,0.40808 0.46302,0.46302 0,0.21776 -0.21728,0.0776 -0.56292,-0.36313 z m -97.841192,-1.01423 c 0.0127,-0.30823 0.07539,-0.37092 0.15985,-0.15986 0.07643,0.191 0.06703,0.41921 -0.02087,0.50712 -0.08792,0.0879 -0.150453,-0.0684 -0.138965,-0.34726 z m -0.264584,-1.85209 c 0.0127,-0.30822 0.07539,-0.37091 0.159851,-0.15985 0.07643,0.191 0.06703,0.4192 -0.02088,0.50712 -0.08792,0.0879 -0.150452,-0.0684 -0.138964,-0.34727 z m 177.480766,-1.10243 c -0.32909,-0.41964 -0.31975,-0.429 0.0999,-0.0999 0.25467,0.19972 0.46303,0.40808 0.46303,0.46302 0,0.21776 -0.21728,0.0776 -0.56293,-0.36313 z M 47.217501,141.25017 c 0.0127,-0.30822 0.07539,-0.37091 0.159851,-0.15985 0.07643,0.191 0.06703,0.4192 -0.02088,0.50712 -0.08792,0.0879 -0.150453,-0.0684 -0.138964,-0.34727 z m 103.926609,-0.83784 c -0.32911,-0.41965 -0.31975,-0.42901 0.0999,-0.0999 0.25466,0.19972 0.46302,0.40808 0.46302,0.46302 0,0.21776 -0.21728,0.0776 -0.56292,-0.36312 z M 46.952918,139.66267 c 0.0127,-0.30822 0.07539,-0.37091 0.15985,-0.15985 0.07643,0.191 0.06703,0.4192 -0.02088,0.50712 -0.08792,0.0879 -0.150453,-0.0684 -0.138965,-0.34727 z m -0.264584,-1.5875 c 0.0127,-0.30822 0.07539,-0.37091 0.159851,-0.15985 0.07643,0.191 0.06703,0.4192 -0.02088,0.50712 -0.08792,0.0879 -0.150452,-0.0683 -0.138964,-0.34727 z m 138.587026,-0.83784 c -0.32911,-0.41965 -0.31975,-0.42901 0.0999,-0.0999 0.44073,0.34564 0.58088,0.56292 0.36312,0.56292 -0.0549,0 -0.2633,-0.20836 -0.46302,-0.46302 z m 35.71875,0 c -0.32911,-0.41965 -0.31975,-0.42901 0.0999,-0.0999 0.44072,0.34564 0.5809,0.56292 0.36312,0.56292 -0.0549,0 -0.26329,-0.20836 -0.46301,-0.46302 z M 46.423751,136.48767 c 0.0127,-0.30822 0.07539,-0.37091 0.159851,-0.15985 0.07643,0.191 0.06703,0.4192 -0.02088,0.50712 -0.08792,0.0879 -0.150453,-0.0683 -0.138964,-0.34727 z m 100.751609,-0.57326 c -0.32911,-0.41964 -0.31975,-0.429 0.0999,-0.0999 0.44073,0.34565 0.58088,0.56292 0.36312,0.56292 -0.0549,0 -0.2633,-0.20836 -0.46302,-0.46302 z m 54.90832,-4.16719 c 2.6e-4,-2.18281 0.0414,-3.04057 0.0911,-1.90613 0.0497,1.13443 0.0494,2.92037 -7.9e-4,3.96875 -0.0501,1.04837 -0.0908,0.1202 -0.0904,-2.06262 z m 17.05835,3.37344 c -0.32911,-0.41964 -0.31975,-0.429 0.0999,-0.0999 0.25466,0.19972 0.46302,0.40808 0.46302,0.46302 0,0.21777 -0.21727,0.0776 -0.56291,-0.36312 z m 36.91798,-0.13229 -0.50403,-0.59531 0.59532,0.50402 c 0.55943,0.47367 0.71575,0.6866 0.50403,0.6866 -0.0502,0 -0.31811,-0.26789 -0.59532,-0.59531 z m -209.900842,-0.0882 c 0.0127,-0.30822 0.07539,-0.37091 0.15985,-0.15985 0.07643,0.191 0.06703,0.4192 -0.02087,0.50712 -0.08792,0.0879 -0.150453,-0.0684 -0.138965,-0.34727 z m 136.484082,-0.57326 -0.64143,-0.7276 0.7276,0.64143 c 0.68006,0.59951 0.84894,0.81377 0.64143,0.81377 -0.0474,0 -0.37481,-0.32742 -0.7276,-0.7276 z m -37.31997,-0.52917 c -0.32911,-0.41964 -0.31975,-0.429 0.0999,-0.0999 0.25466,0.19972 0.46302,0.40808 0.46302,0.46302 0,0.21776 -0.21727,0.0776 -0.56291,-0.36313 z m 61.9125,-1.32291 c -0.32911,-0.41965 -0.31975,-0.42901 0.0999,-0.0999 0.44073,0.34564 0.58089,0.56292 0.36313,0.56292 -0.0549,0 -0.2633,-0.20836 -0.46302,-0.46302 z m -187.291251,0.0985 c 0,-0.0549 0.20836,-0.2633 0.463021,-0.46302 0.419645,-0.32911 0.429004,-0.31975 0.0999,0.0999 -0.345643,0.44073 -0.562917,0.58089 -0.562917,0.36313 z m 243.681171,-17.3096 0.13223,-16.32488 0.0683,16.12429 c 0.0376,8.86835 -0.022,16.21455 -0.13224,16.32487 -0.11027,0.11033 -0.14099,-7.1456 -0.0683,-16.12428 z m -49.35466,14.43293 -1.31297,-1.38906 1.38906,1.31297 c 1.29074,1.22004 1.5104,1.46515 1.31297,1.46515 -0.0419,0 -0.66693,-0.62507 -1.38906,-1.38906 z m -23.3078,-1.52135 c 0,-1.52797 0.0437,-2.15305 0.0972,-1.38906 0.0534,0.76398 0.0534,2.01414 0,2.77812 -0.0534,0.76398 -0.0972,0.13891 -0.0972,-1.38906 z m -6.18761,-1.78594 -3.0384,-3.10885 3.10886,3.03839 c 2.88768,2.82224 3.22894,3.17931 3.03839,3.17931 -0.0387,0 -1.43774,-1.39898 -3.10885,-3.10885 z m -55.55819,2.06614 c 0,-0.42798 0.0942,-0.83635 0.20929,-0.90749 0.11511,-0.0711 0.16161,0.27902 0.10335,0.77814 -0.12982,1.11196 -0.31264,1.1876 -0.31264,0.12935 z m 10.83368,-0.21406 -0.9118,-0.99218 0.99219,0.9118 c 0.9235,0.84868 1.11384,1.07257 0.9118,1.07257 -0.0442,0 -0.4907,-0.44648 -0.99219,-0.99219 z m 115.50034,-3.83645 -2.90589,-2.97657 2.97656,2.90591 c 2.76474,2.69912 3.09671,3.04722 2.90589,3.04722 -0.0388,0 -1.37829,-1.33946 -2.97656,-2.97656 z m -82.16863,0.39687 -0.64143,-0.7276 0.72761,0.64143 c 0.40018,0.35279 0.7276,0.68021 0.7276,0.7276 0,0.20751 -0.21426,0.0386 -0.81378,-0.64143 z m 36.2342,0 c -0.32911,-0.41964 -0.31975,-0.429 0.0999,-0.0999 0.25466,0.19973 0.46302,0.40808 0.46302,0.46303 0,0.21776 -0.21727,0.0776 -0.56291,-0.36313 z m -73.28959,-0.52917 c -0.3291,-0.41964 -0.31975,-0.429 0.0999,-0.0999 0.44073,0.34564 0.58089,0.56291 0.36312,0.56291 -0.0549,0 -0.2633,-0.20835 -0.46302,-0.46302 z m -87.787022,-1.5434 c 0.0127,-0.30822 0.07539,-0.37092 0.15985,-0.15985 0.07643,0.19099 0.06703,0.4192 -0.02088,0.50712 -0.08792,0.0879 -0.150453,-0.0683 -0.138965,-0.34727 z m 120.215592,-2.82222 -0.77711,-0.8599 0.8599,0.77711 c 0.47294,0.42741 0.85989,0.81436 0.85989,0.85989 0,0.20441 -0.21831,0.0245 -0.94268,-0.7771 z m 71.17291,-1.32292 -0.7771,-0.85989 0.85989,0.7771 c 0.80156,0.72437 0.98153,0.94269 0.77711,0.94269 -0.0455,0 -0.43249,-0.38696 -0.8599,-0.8599 z M 23.86367,118.46961 c 0.190995,-0.0764 0.419198,-0.067 0.507119,0.0209 0.08792,0.0879 -0.06835,0.15046 -0.347266,0.13897 -0.308226,-0.0127 -0.370919,-0.0754 -0.159853,-0.15985 z m -1.157494,-9.47655 c -1.43e-4,-3.92907 0.03668,-5.57329 0.08183,-3.65384 0.04515,1.91945 0.04526,5.13414 2.57e-4,7.14375 -0.045,2.00961 -0.08194,0.43915 -0.08208,-3.48991 z m 141.416244,6.01927 -0.64144,-0.72761 0.72761,0.64144 c 0.68005,0.59951 0.84894,0.81377 0.64143,0.81377 -0.0474,0 -0.37481,-0.32742 -0.7276,-0.7276 z m 71.17291,-1.32292 -0.64143,-0.7276 0.7276,0.64143 c 0.40019,0.35279 0.72761,0.68021 0.72761,0.7276 0,0.20751 -0.21426,0.0386 -0.81378,-0.64143 z m -75.80823,-3.57187 -0.50403,-0.59532 0.59531,0.50403 c 0.55945,0.47366 0.71576,0.6866 0.50403,0.6866 -0.0502,0 -0.3181,-0.26789 -0.59531,-0.59531 z m -30.51335,-0.0882 c 0.0127,-0.30822 0.0754,-0.37092 0.15985,-0.15985 0.0764,0.19099 0.067,0.4192 -0.0209,0.50712 -0.0879,0.0879 -0.15045,-0.0683 -0.13896,-0.34727 z m 72.79111,-0.50712 c 0.005,-0.43656 0.0647,-0.58312 0.13177,-0.32569 0.0671,0.25743 0.0627,0.61462 -0.01,0.79375 -0.0725,0.17913 -0.12736,-0.0315 -0.12197,-0.46806 z M 48.635599,97.219099 c 0,-4.001823 0.03677,-5.638932 0.08172,-3.638021 0.04495,2.000912 0.04495,5.27513 0,7.276042 -0.04495,2.00091 -0.08172,0.3638 -0.08172,-3.638021 z m 107.900651,5.159371 c 0.003,-0.58208 0.0571,-0.78905 0.12041,-0.45993 0.0633,0.32912 0.0609,0.80537 -0.005,1.05833 -0.0662,0.25297 -0.118,-0.0163 -0.11507,-0.5984 z m 72.76042,-0.52916 c 0.003,-0.58209 0.0571,-0.78906 0.12041,-0.45994 0.0633,0.32912 0.0609,0.80537 -0.005,1.05833 -0.0662,0.25297 -0.118,-0.0163 -0.11507,-0.59839 z m -73.025,-3.439586 c 0.003,-0.582084 0.0571,-0.789054 0.1204,-0.459936 0.0633,0.329118 0.0609,0.805368 -0.005,1.058333 -0.0662,0.252966 -0.11801,-0.01632 -0.11507,-0.598397 z m 72.76042,-0.529167 c 0.003,-0.582083 0.0571,-0.789053 0.12041,-0.459936 0.0633,0.329118 0.0609,0.805368 -0.005,1.058334 -0.0662,0.252965 -0.11801,-0.01632 -0.11507,-0.598398 z m -73.02501,-3.439583 c 0.003,-0.582083 0.0571,-0.789054 0.12041,-0.459936 0.0633,0.329118 0.0609,0.805368 -0.005,1.058333 -0.0662,0.252966 -0.118,-0.01632 -0.11506,-0.598397 z m 72.77839,-1.190625 c 0,-0.945885 0.048,-1.332839 0.1067,-0.859896 0.0587,0.472943 0.0587,1.246849 0,1.719792 -0.0587,0.472942 -0.1067,0.08599 -0.1067,-0.859896 z m -72.78373,-1.322917 c 0,-0.509323 0.0544,-0.717682 0.12101,-0.46302 0.0665,0.254661 0.0665,0.67138 0,0.926041 -0.0666,0.254662 -0.12101,0.0463 -0.12101,-0.463021 z M 201.78,91.001391 c 0.003,-0.582084 0.0571,-0.789054 0.12041,-0.459936 0.0633,0.329118 0.0609,0.805368 -0.005,1.058333 -0.0662,0.252966 -0.118,-0.01633 -0.11507,-0.598397 z m -81.50681,-0.529167 c 0.005,-0.436562 0.0647,-0.583126 0.13177,-0.325694 0.0671,0.257432 0.0627,0.614619 -0.01,0.79375 -0.0725,0.179131 -0.12736,-0.03149 -0.12197,-0.468056 z m 8.73125,0 c 0.005,-0.436562 0.0647,-0.583126 0.13177,-0.325694 0.0671,0.257432 0.0627,0.614619 -0.01,0.79375 -0.0725,0.179131 -0.12736,-0.03149 -0.12197,-0.468056 z M 56.23422,89.810766 c 0,-0.363802 0.06006,-0.51263 0.133454,-0.330729 0.0734,0.181901 0.0734,0.479557 0,0.661458 -0.0734,0.181901 -0.133454,0.03307 -0.133454,-0.330729 z m -69.320832,-0.264584 c 0,-0.363802 0.06006,-0.51263 0.133454,-0.330729 0.0734,0.181901 0.0734,0.479558 0,0.661459 -0.0734,0.181901 -0.133454,0.03307 -0.133454,-0.33073 z M 190.65236,88.355557 c 0.005,-0.436562 0.0647,-0.583125 0.13177,-0.325694 0.0671,0.257432 0.0627,0.614619 -0.01,0.79375 -0.0725,0.179131 -0.12736,-0.03149 -0.12197,-0.468056 z m 11.34639,0.242536 c 0.0127,-0.308226 0.0754,-0.370919 0.15985,-0.159853 0.0764,0.190995 0.067,0.419198 -0.0209,0.507119 -0.0879,0.08792 -0.15045,-0.06835 -0.13896,-0.347266 z M 129.23833,88.33351 c 0.0127,-0.308227 0.0754,-0.37092 0.15985,-0.159854 0.0764,0.190995 0.067,0.419198 -0.0209,0.507119 -0.0879,0.08792 -0.15045,-0.06835 -0.13897,-0.347265 z M 48.275834,87.53976 c 0.0127,-0.308227 0.07539,-0.37092 0.159851,-0.159854 0.07643,0.190995 0.06703,0.419198 -0.02088,0.507119 -0.08792,0.08792 -0.150452,-0.06835 -0.138964,-0.347265 z m 43.60161,-0.0441 c -0.329107,-0.419645 -0.319749,-0.429004 0.0999,-0.0999 0.440729,0.345643 0.580887,0.562916 0.363124,0.562916 -0.05494,0 -0.2633,-0.208359 -0.463021,-0.46302 z m 72.231246,-0.264584 c -0.3291,-0.419645 -0.31975,-0.429003 0.0999,-0.0999 0.44073,0.345644 0.58089,0.562917 0.36312,0.562917 -0.0549,0 -0.2633,-0.208359 -0.46302,-0.463021 z m -74.363771,-0.77605 c 0.190994,-0.07643 0.4192,-0.06703 0.507119,0.02088 0.08792,0.08792 -0.06835,0.150453 -0.347266,0.138964 -0.308226,-0.0127 -0.370919,-0.07539 -0.159853,-0.15985 z M 18.423175,86.181675 c 0.400183,-0.06062 1.055026,-0.06062 1.455209,0 0.400182,0.06062 0.07276,0.110222 -0.727605,0.110222 -0.800364,0 -1.127786,-0.0496 -0.727604,-0.110222 z M 160.50806,86.18141 c 0.40218,-0.06082 0.9975,-0.05919 1.32292,0.0036 0.32542,0.0628 -0.004,0.112559 -0.73125,0.110575 -0.7276,-0.0021 -0.99385,-0.05337 -0.59167,-0.114186 z m 72.7604,0 c 0.4022,-0.06082 0.99751,-0.05919 1.32292,0.0036 0.32544,0.0628 -0.004,0.112559 -0.73123,0.110575 -0.7276,-0.0021 -0.99385,-0.05337 -0.59169,-0.114186 z m -98.49477,-9.202936 c 0.34178,-0.363802 0.68094,-0.661458 0.7537,-0.661458 0.0728,0 -0.14734,0.297656 -0.48911,0.661458 -0.34178,0.363803 -0.68094,0.661459 -0.7537,0.661459 -0.0728,0 0.14734,-0.297656 0.48911,-0.661459 z m 50.38648,-0.992187 -0.7771,-0.859896 0.85989,0.777105 c 0.47295,0.427408 0.8599,0.814361 0.8599,0.859896 0,0.204407 -0.21832,0.02445 -0.94269,-0.777105 z M -6.5138034,76.21712 c 0,-0.05494 0.2083594,-0.2633 0.4630208,-0.463021 0.4196451,-0.329107 0.4290034,-0.319749 0.099896,0.0999 -0.3456437,0.44073 -0.5629169,0.580888 -0.5629169,0.363125 z M 9.5761703,69.521694 c 0.1909947,-0.07643 0.4191978,-0.06703 0.5071187,0.02088 0.08792,0.08792 -0.06835,0.150453 -0.3472654,0.138965 -0.3082264,-0.0127 -0.3709194,-0.07539 -0.1598533,-0.159851 z m 69.3208317,0 c 0.190995,-0.07643 0.419201,-0.06703 0.507119,0.02088 0.08792,0.08792 -0.06835,0.150453 -0.347265,0.138965 -0.308227,-0.0127 -0.37092,-0.07539 -0.159854,-0.159851 z m 72.760418,0 c 0.19099,-0.07643 0.4192,-0.06703 0.50712,0.02088 0.0879,0.08792 -0.0684,0.150453 -0.34727,0.138965 -0.30823,-0.0127 -0.37092,-0.07539 -0.15985,-0.159851 z m 18.78541,0 c 0.191,-0.07643 0.4192,-0.06703 0.50712,0.02088 0.0879,0.08792 -0.0684,0.150453 -0.34726,0.138965 -0.30823,-0.0127 -0.37092,-0.07539 -0.15986,-0.159851 z m 54.23959,0 c 0.191,-0.07643 0.4192,-0.06703 0.50712,0.02088 0.0879,0.08792 -0.0684,0.150453 -0.34726,0.138965 -0.30824,-0.0127 -0.37092,-0.07539 -0.15986,-0.159851 z m 18.52083,0 c 0.191,-0.07643 0.4192,-0.06703 0.50713,0.02088 0.0879,0.08792 -0.0684,0.150453 -0.34727,0.138965 -0.30824,-0.0127 -0.37092,-0.07539 -0.15986,-0.159851 z M 11.6763,69.262621 c 0.181901,-0.0734 0.479558,-0.0734 0.661459,0 0.181901,0.0734 0.03307,0.133454 -0.330729,0.133454 -0.363802,0 -0.512631,-0.06005 -0.33073,-0.133454 z m 14.2875,0 c 0.181901,-0.0734 0.479557,-0.0734 0.661458,0 0.181901,0.0734 0.03307,0.133454 -0.330729,0.133454 -0.363802,0 -0.51263,-0.06005 -0.330729,-0.133454 z m 54.768749,0 c 0.181901,-0.0734 0.479557,-0.0734 0.661458,0 0.181901,0.0734 0.03307,0.133454 -0.330729,0.133454 -0.363802,0 -0.51263,-0.06005 -0.330729,-0.133454 z m 14.816666,0 c 0.181901,-0.0734 0.479558,-0.0734 0.661459,0 0.181901,0.0734 0.03307,0.133454 -0.330729,0.133454 -0.363802,0 -0.512631,-0.06005 -0.33073,-0.133454 z m 58.208335,0 c 0.1819,-0.0734 0.47955,-0.0734 0.66146,0 0.1819,0.0734 0.0331,0.133454 -0.33073,0.133454 -0.36381,0 -0.51263,-0.06005 -0.33073,-0.133454 z m 14.55208,0 c 0.1819,-0.0734 0.47956,-0.0734 0.66146,0 0.1819,0.0734 0.0331,0.133454 -0.33073,0.133454 -0.3638,0 -0.51263,-0.06005 -0.33073,-0.133454 z m 58.34565,-0.0081 c 0.25744,-0.06708 0.61463,-0.06267 0.79375,0.0098 0.17915,0.07248 -0.0315,0.127362 -0.46805,0.12197 -0.43656,-0.0054 -0.58311,-0.06469 -0.3257,-0.131773 z m 14.41477,0.0081 c 0.1819,-0.0734 0.47955,-0.0734 0.66145,0 0.18191,0.0734 0.0331,0.133454 -0.33072,0.133454 -0.36381,0 -0.51264,-0.06005 -0.33073,-0.133454 z M 14.98723,68.983407 c 0.402183,-0.06082 0.997495,-0.05919 1.322917,0.0036 0.325421,0.0628 -0.0036,0.112559 -0.731242,0.110575 -0.727605,-0.0021 -0.993857,-0.05337 -0.591675,-0.114187 z m 7.408333,0 c 0.402183,-0.06082 0.997495,-0.05919 1.322917,0.0036 0.325421,0.0628 -0.0036,0.112559 -0.731242,0.110575 -0.727604,-0.0021 -0.993857,-0.05337 -0.591675,-0.114187 z m 61.647916,0 c 0.402182,-0.06082 0.997495,-0.05919 1.322916,0.0036 0.325422,0.0628 -0.0037,0.112559 -0.731242,0.110575 -0.727604,-0.0021 -0.993857,-0.05337 -0.591674,-0.114187 z m 7.672916,0 c 0.402183,-0.06082 0.997495,-0.05919 1.322917,0.0036 0.325421,0.0628 -0.0036,0.112559 -0.731242,0.110575 -0.727604,-0.0021 -0.993857,-0.05337 -0.591675,-0.114187 z m 65.352085,0 c 0.40218,-0.06082 0.99749,-0.05919 1.32291,0.0036 0.32543,0.0628 -0.004,0.112559 -0.73124,0.110575 -0.7276,-0.0021 -0.99386,-0.05337 -0.59167,-0.114187 z m 7.67291,0 c 0.40219,-0.06082 0.9975,-0.05919 1.32292,0.0036 0.32542,0.0628 -0.004,0.112559 -0.73124,0.110575 -0.72761,-0.0021 -0.99386,-0.05337 -0.59168,-0.114187 z m 65.08386,2.64e-4 c 0.40019,-0.06062 1.05503,-0.06062 1.45521,0 0.40019,0.06062 0.0728,0.110223 -0.7276,0.110223 -0.80037,0 -1.12779,-0.0496 -0.72761,-0.110223 z m 7.67655,-2.64e-4 c 0.40219,-0.06082 0.9975,-0.05919 1.32291,0.0036 0.32544,0.0628 -0.004,0.112559 -0.73123,0.110575 -0.7276,-0.0021 -0.99385,-0.05337 -0.59168,-0.114187 z"
         id="path1181" /><path
         style="fill:#fdcf09;stroke-width:0.264583"
         d="m 24.662495,132.56303 -4.145574,-0.28664 14.822085,-8.54988 c 8.152146,-4.70243 14.870723,-8.50124 14.93017,-8.44179 0.05945,0.0595 -0.0665,0.60291 -0.279876,1.20769 -0.213381,0.60478 -0.33097,1.0996 -0.261311,1.0996 0.06966,0 -0.06838,0.29766 -0.30675,0.66146 -0.290345,0.44313 -0.329787,0.66146 -0.119491,0.66146 0.225909,0 0.215898,0.10869 -0.03572,0.3877 -0.784257,0.86964 -1.023755,1.1998 -0.870328,1.1998 0.08889,0 -0.02548,0.1871 -0.254151,0.41578 -0.228677,0.22867 -0.415774,0.58586 -0.415774,0.79375 0,0.20788 -0.119063,0.37797 -0.264583,0.37797 -0.145521,0 -0.264584,0.12757 -0.264584,0.28348 0,0.15592 -0.148828,0.44113 -0.330729,0.6338 -0.181901,0.19267 -0.628385,0.74367 -0.992187,1.22443 -0.842952,1.11396 -2.035998,2.30701 -3.149958,3.14996 -0.480763,0.3638 -1.031755,0.81028 -1.22443,0.99219 -0.192673,0.1819 -0.477883,0.33072 -0.633796,0.33072 -0.155917,0 -0.283483,0.11907 -0.283483,0.26459 0,0.14552 -0.17009,0.26458 -0.377976,0.26458 -0.207888,0 -0.541131,0.16316 -0.740542,0.36257 -0.440754,0.44075 -2.056482,1.29724 -2.056482,1.09013 0,-0.0816 -0.267891,5.3e-4 -0.595312,0.18226 -0.327422,0.18187 -0.654844,0.34459 -0.727605,0.36161 -0.783494,0.18329 -1.771893,0.48825 -1.984375,0.61226 -0.14552,0.0849 -0.443177,0.19069 -0.661458,0.23503 -0.83367,0.16932 -2.015932,0.3566 -2.806393,0.44456 -0.452109,0.0503 -1.047422,0.14458 -1.322917,0.20952 -0.275494,0.0649 -2.366406,-0.0109 -4.646474,-0.16859 z"
         id="path1179" /><path
         style="fill:#fcbb0f;stroke-width:0.264583"
         d="m 34.438875,142.38309 c -16.214558,-11.22818 -15.349243,-10.22829 -8.428672,-9.73956 5.611783,0.39631 9.109583,1.46656 12.792789,3.91432 3.727257,2.47704 6.83379,6.13745 8.543213,10.06642 0.457642,1.05186 0.927947,1.82576 1.04512,1.71979 0.117173,-0.10597 0.122955,-0.0367 0.01286,0.15403 -0.110109,0.19068 -0.07867,0.66693 0.06985,1.05833 0.39238,1.03399 0.633246,2.69825 0.388218,2.6824 -0.115734,-0.007 -6.606252,-4.44257 -14.423371,-9.85573 z m -3.960622,-9.89057 c 0.190995,-0.0764 0.419201,-0.067 0.507119,0.0209 0.08792,0.0879 -0.06835,0.15045 -0.347266,0.13896 -0.308226,-0.0127 -0.370919,-0.0754 -0.159853,-0.15985 z"
         id="path1177" /><path
         style="fill:#5a9f65;stroke-width:0.264583"
         d="m 16.708122,197.03984 c 0.475549,-0.0589 1.189924,-0.0577 1.5875,0.003 0.397576,0.0604 0.0085,0.10855 -0.864634,0.10707 -0.873125,-0.002 -1.198415,-0.0509 -0.722866,-0.10977 z m 3.434845,0.005 c 0.327422,-0.0631 0.863203,-0.0631 1.190625,0 0.327422,0.0631 0.05953,0.11466 -0.595313,0.11466 -0.654843,0 -0.922734,-0.0516 -0.595312,-0.11466 z m 65.352082,-0.005 c 0.472943,-0.0587 1.246849,-0.0587 1.719792,0 0.472942,0.0587 0.08599,0.10671 -0.859896,0.10671 -0.945886,0 -1.332839,-0.048 -0.859896,-0.10671 z m 3.836458,0.002 c 0.400183,-0.0606 1.055026,-0.0606 1.455209,0 0.400182,0.0606 0.07276,0.11022 -0.727605,0.11022 -0.800364,0 -1.127786,-0.0496 -0.727604,-0.11022 z m 66.944613,0.006 c 0.25744,-0.0671 0.61462,-0.0627 0.79375,0.01 0.17914,0.0725 -0.0315,0.12736 -0.46805,0.12197 -0.43656,-0.005 -0.58313,-0.0647 -0.3257,-0.13177 z m 7.66789,0.001 c 0.25466,-0.0665 0.67138,-0.0665 0.92604,0 0.25466,0.0666 0.0463,0.12101 -0.46302,0.12101 -0.50933,0 -0.71769,-0.0545 -0.46302,-0.12101 z m 66.67499,-0.007 c 0.40019,-0.0606 1.05503,-0.0606 1.45521,0 0.40019,0.0606 0.0728,0.11022 -0.7276,0.11022 -0.80037,0 -1.12779,-0.0496 -0.72761,-0.11022 z m 3.8412,-0.002 c 0.47556,-0.0589 1.18994,-0.0577 1.5875,0.003 0.39759,0.0604 0.008,0.10855 -0.86463,0.10706 -0.87313,-0.002 -1.19841,-0.0509 -0.72287,-0.10976 z M 81.278252,196.78646 c 0.190995,-0.0764 0.419201,-0.067 0.507119,0.0209 0.08792,0.0879 -0.06835,0.15046 -0.347266,0.13897 -0.308226,-0.0127 -0.370919,-0.0754 -0.159853,-0.15985 z m 86.518748,0 c 0.191,-0.0764 0.4192,-0.067 0.50712,0.0209 0.0879,0.0879 -0.0684,0.15046 -0.34727,0.13897 -0.30822,-0.0127 -0.37092,-0.0754 -0.15985,-0.15985 z m 58.47292,0 c 0.191,-0.0764 0.4192,-0.067 0.50712,0.0209 0.0879,0.0879 -0.0684,0.15046 -0.34726,0.13897 -0.30824,-0.0127 -0.37092,-0.0754 -0.15986,-0.15985 z m 13.75833,0 c 0.191,-0.0764 0.4192,-0.067 0.50713,0.0209 0.0879,0.0879 -0.0684,0.15046 -0.34727,0.13897 -0.30824,-0.0127 -0.37092,-0.0754 -0.15986,-0.15985 z m -31.73414,-6.36789 c -0.32911,-0.41964 -0.31975,-0.429 0.0999,-0.0999 0.44073,0.34564 0.58089,0.56292 0.36313,0.56292 -0.0549,0 -0.2633,-0.20836 -0.46302,-0.46303 z m -21.40856,-1.19062 c 0.64876,-0.69122 1.21431,-1.25677 1.25677,-1.25677 0.19867,0 -0.0114,0.23755 -1.17956,1.33397 l -1.25678,1.17957 z m 72.76042,0 c 1.09643,-1.16819 1.33397,-1.37824 1.33397,-1.17957 0,0.0425 -0.56555,0.60801 -1.25677,1.25677 l -1.25677,1.17957 z m -144.84832,-0.7276 c 0.26339,-0.29105 0.53842,-0.52917 0.61118,-0.52917 0.0728,0 -0.0832,0.23812 -0.34659,0.52917 -0.26339,0.29104 -0.53843,0.52916 -0.61119,0.52916 -0.0728,0 0.0832,-0.23812 0.3466,-0.52916 z m -54.405622,-0.46303 c -0.329107,-0.41964 -0.319749,-0.429 0.0999,-0.0999 0.44073,0.34564 0.580888,0.56292 0.363125,0.56292 -0.05494,0 -0.2633,-0.20836 -0.463021,-0.46303 z m -41.833476,-8.45535 c 0.329118,-0.0633 0.805368,-0.0609 1.058333,0.005 0.252966,0.0662 -0.01632,0.11801 -0.598397,0.11507 -0.582084,-0.003 -0.789054,-0.0571 -0.459936,-0.12041 z m 69.320832,0 c 0.329118,-0.0633 0.805368,-0.0609 1.058333,0.005 0.252966,0.0662 -0.01633,0.11801 -0.598397,0.11507 -0.582084,-0.003 -0.789054,-0.0571 -0.459936,-0.12041 z m 144.194826,-0.79335 c 0.32742,-0.0631 0.86321,-0.0631 1.19063,0 0.32742,0.0631 0.0595,0.11466 -0.59531,0.11466 -0.65485,0 -0.92274,-0.0516 -0.59532,-0.11466 z m 4.29948,-0.9715 c 0,-0.0549 0.20836,-0.2633 0.46302,-0.46302 0.41966,-0.32911 0.429,-0.31975 0.0999,0.0999 -0.34565,0.44073 -0.56293,0.58089 -0.56293,0.36313 z m -249.481188,-0.58361 c 0.0127,-0.30823 0.07539,-0.37092 0.159851,-0.15986 0.07643,0.191 0.06703,0.4192 -0.02088,0.50712 -0.08792,0.0879 -0.150452,-0.0684 -0.138964,-0.34726 z m 69.341718,-0.37483 c 0,-0.3638 0.06006,-0.51263 0.133454,-0.33073 0.0734,0.1819 0.0734,0.47956 0,0.66146 -0.0734,0.1819 -0.133454,0.0331 -0.133454,-0.33073 z m -33.26689,-5.29167 c 0,-3.12869 0.03827,-4.40862 0.08505,-2.84427 0.04678,1.56435 0.04678,4.12419 0,5.68854 -0.04678,1.56435 -0.08505,0.28443 -0.08505,-2.84427 z m 106.03711,4.36563 c 0.005,-0.43656 0.0647,-0.58313 0.13177,-0.3257 0.0671,0.25744 0.0627,0.61462 -0.01,0.79375 -0.0725,0.17913 -0.12736,-0.0315 -0.12197,-0.46805 z m -8.65372,-42.33333 c 0,-23.42886 0.0312,-32.97424 0.0693,-21.21196 0.0381,11.76227 0.0381,30.93133 -10e-6,42.59791 -0.0381,11.66658 -0.0693,2.0429 -0.0693,-21.38595 z m 72.65219,41.78211 c 0.0127,-0.30822 0.0754,-0.37092 0.15986,-0.15985 0.0764,0.19099 0.067,0.4192 -0.0209,0.50712 -0.0879,0.0879 -0.15045,-0.0684 -0.13896,-0.34727 z m 8.80934,-2.3592 c 5.3e-4,-1.60073 0.0442,-2.22146 0.0968,-1.3794 0.0527,0.84206 0.0522,2.15174 -0.001,2.91042 -0.0533,0.75867 -0.0964,0.0697 -0.0958,-1.53102 z m -72.75113,-4.23333 c -2.6e-4,-2.47386 0.0395,-3.5215 0.0884,-2.3281 0.0489,1.1934 0.0492,3.21747 5.3e-4,4.49792 -0.0486,1.28045 -0.0886,0.30403 -0.0889,-2.16982 z m 35.98707,-4.7625 c 2.1e-4,-3.05594 0.0387,-4.26986 0.0856,-2.6976 0.0469,1.57226 0.0467,4.07257 -2.6e-4,5.55625 -0.0471,1.48368 -0.0854,0.19729 -0.0852,-2.85865 z m 61.50216,-8.53281 c -0.32909,-0.41965 -0.31975,-0.42901 0.0999,-0.0999 0.25467,0.19972 0.46303,0.40808 0.46303,0.46302 0,0.21776 -0.21728,0.0776 -0.56293,-0.36312 z m -73.02499,-0.26459 c -0.32911,-0.41964 -0.31975,-0.429 0.0999,-0.0999 0.25466,0.19972 0.46302,0.40808 0.46302,0.46302 0,0.21776 -0.21728,0.0776 -0.56292,-0.36313 z m 10.05417,-0.79375 c -0.32911,-0.41964 -0.31975,-0.429 0.0999,-0.0999 0.25466,0.19972 0.46302,0.40808 0.46302,0.46302 0,0.21776 -0.21727,0.0776 -0.56291,-0.36313 z m 71.96665,-0.79375 c -0.32909,-0.41964 -0.31975,-0.429 0.0999,-0.0999 0.25466,0.19972 0.46302,0.40808 0.46302,0.46302 0,0.21776 -0.21728,0.0776 -0.56293,-0.36313 z m 30.21714,-0.22048 c 0.0127,-0.30823 0.0754,-0.37092 0.15986,-0.15986 0.0764,0.191 0.067,0.4192 -0.0209,0.50712 -0.0879,0.0879 -0.15047,-0.0684 -0.13899,-0.34726 z m -72.76041,-0.26459 c 0.0127,-0.30822 0.0754,-0.37092 0.15986,-0.15985 0.0764,0.191 0.067,0.4192 -0.0209,0.50712 -0.0879,0.0879 -0.15045,-0.0684 -0.13896,-0.34727 z m -31.27547,-0.83784 c -0.3291,-0.41965 -0.31975,-0.42901 0.0999,-0.0999 0.25466,0.19972 0.46302,0.40808 0.46302,0.46302 0,0.21776 -0.21727,0.0776 -0.56292,-0.36312 z m -11.1125,-0.52917 c -0.3291,-0.41965 -0.31975,-0.429 0.0999,-0.0999 0.25466,0.19972 0.46302,0.40808 0.46302,0.46302 0,0.21777 -0.21727,0.0776 -0.56292,-0.36312 z m 82.95549,-0.39688 -0.50403,-0.59531 0.59531,0.50403 c 0.55944,0.47366 0.71575,0.6866 0.50403,0.6866 -0.0502,0 -0.3181,-0.26789 -0.59531,-0.59532 z m -11.25342,-0.92604 c -0.32908,-0.41964 -0.31974,-0.429 0.0999,-0.0999 0.44072,0.34564 0.58089,0.56291 0.36312,0.56291 -0.0549,0 -0.26329,-0.20836 -0.46303,-0.46302 z m -73.02498,-0.26458 c -0.32911,-0.41965 -0.31975,-0.429 0.0999,-0.0999 0.25466,0.19972 0.46302,0.40808 0.46302,0.46302 0,0.21777 -0.21727,0.0776 -0.56291,-0.36312 z m 10.45965,-0.13229 -0.50403,-0.59531 0.59531,0.50402 c 0.32743,0.27722 0.59532,0.54511 0.59532,0.59532 0,0.21173 -0.21294,0.0554 -0.6866,-0.50403 z m 71.82575,-0.92604 c -0.32909,-0.41965 -0.31975,-0.42901 0.0999,-0.0999 0.44071,0.34564 0.58089,0.56292 0.36311,0.56292 -0.0549,0 -0.26328,-0.20836 -0.46302,-0.46302 z m -83.8729,-0.79375 c -0.32911,-0.41965 -0.31975,-0.42901 0.0999,-0.0999 0.44073,0.34564 0.58089,0.56292 0.36313,0.56292 -0.0549,0 -0.2633,-0.20836 -0.46302,-0.46302 z m 10.05416,-0.52917 c -0.3291,-0.41965 -0.31975,-0.429 0.0999,-0.0999 0.44073,0.34565 0.58089,0.56292 0.36312,0.56292 -0.0549,0 -0.2633,-0.20836 -0.46302,-0.46302 z m 61.64792,-0.79375 c -0.32911,-0.41965 -0.31975,-0.429 0.0999,-0.0999 0.44073,0.34565 0.58089,0.56292 0.36313,0.56292 -0.0549,0 -0.2633,-0.20836 -0.46302,-0.46302 z m 10.31874,0 c -0.32909,-0.41965 -0.31975,-0.429 0.0999,-0.0999 0.44072,0.34565 0.5809,0.56292 0.36312,0.56292 -0.0549,0 -0.26329,-0.20836 -0.46302,-0.46302 z m -83.34374,-0.26458 c -0.32911,-0.41965 -0.31975,-0.42901 0.0999,-0.0999 0.44073,0.34564 0.58088,0.56292 0.36312,0.56292 -0.0549,0 -0.2633,-0.20836 -0.46302,-0.46302 z m 9.40132,-1.19063 -0.50403,-0.59531 0.59531,0.50403 c 0.32743,0.27721 0.59532,0.5451 0.59532,0.59531 0,0.21173 -0.21294,0.0554 -0.6866,-0.50403 z m 71.96667,-0.79375 -0.50403,-0.59531 0.59531,0.50403 c 0.55943,0.47366 0.71575,0.68659 0.50403,0.68659 -0.0502,0 -0.31811,-0.26789 -0.59531,-0.59531 z m -25.66293,-4.69635 c 0,-2.54662 0.0397,-3.58841 0.0882,-2.31511 0.0485,1.27331 0.0485,3.3569 0,4.63021 -0.0485,1.27331 -0.0882,0.23151 -0.0882,-2.3151 z m -48.15582,3.37343 -0.50403,-0.59531 0.59531,0.50403 c 0.32742,0.27722 0.59531,0.54511 0.59531,0.59531 0,0.21174 -0.21293,0.0554 -0.68659,-0.50403 z m -10.45966,-0.13229 c -0.3291,-0.41964 -0.31975,-0.429 0.0999,-0.0999 0.44073,0.34564 0.58089,0.56291 0.36312,0.56291 -0.0549,0 -0.2633,-0.20836 -0.46302,-0.46302 z m 82.28541,-0.79375 c -0.32909,-0.41964 -0.31975,-0.429 0.0999,-0.0999 0.25467,0.19972 0.46303,0.40808 0.46303,0.46302 0,0.21776 -0.21728,0.0776 -0.56293,-0.36313 z m -10.58332,-0.52916 c -0.32911,-0.41965 -0.31975,-0.42901 0.0999,-0.0999 0.44073,0.34564 0.58089,0.56292 0.36313,0.56292 -0.0549,0 -0.2633,-0.20836 -0.46302,-0.46302 z m -73.025,-0.26459 c -0.32911,-0.41964 -0.31975,-0.429 0.0999,-0.0999 0.44073,0.34564 0.58089,0.56291 0.36313,0.56291 -0.0549,0 -0.2633,-0.20836 -0.46302,-0.46302 z m 9.78958,-0.52916 c -0.32911,-0.41965 -0.31975,-0.42901 0.0999,-0.0999 0.44073,0.34564 0.58088,0.56292 0.36312,0.56292 -0.0549,0 -0.2633,-0.20836 -0.46302,-0.46302 z m 71.84299,-0.92605 -0.50403,-0.59531 0.59531,0.50403 c 0.32742,0.27722 0.59531,0.54511 0.59531,0.59531 0,0.21174 -0.21293,0.0554 -0.68659,-0.50403 z m -73.81875,-1.32291 -0.50403,-0.59531 0.59531,0.50402 c 0.32742,0.27722 0.59531,0.54511 0.59531,0.59532 0,0.21173 -0.21293,0.0554 -0.68659,-0.50403 z m -10.72424,-0.66146 c -0.32911,-0.41965 -0.31975,-0.429 0.0999,-0.0999 0.44073,0.34565 0.58088,0.56292 0.36312,0.56292 -0.0549,0 -0.2633,-0.20836 -0.46302,-0.46302 z m 82.54999,-0.26458 c -0.32909,-0.41965 -0.31975,-0.42901 0.0999,-0.0999 0.44072,0.34564 0.5809,0.56292 0.36312,0.56292 -0.0549,0 -0.26329,-0.20836 -0.46302,-0.46302 z m -92.46159,-4.29948 c 0,-2.54662 0.0397,-3.58841 0.0882,-2.31511 0.0485,1.27331 0.0485,3.3569 0,4.63021 -0.0485,1.27331 -0.0882,0.23151 -0.0882,-2.3151 z m 18.78375,3.10885 -0.50402,-0.59531 0.59531,0.50403 c 0.32742,0.27721 0.59531,0.5451 0.59531,0.59531 0,0.21173 -0.21293,0.0554 -0.6866,-0.50403 z m 62.82993,0.13229 c -0.32911,-0.41964 -0.31975,-0.429 0.0999,-0.0999 0.44073,0.34564 0.58089,0.56291 0.36312,0.56291 -0.0549,0 -0.2633,-0.20836 -0.46302,-0.46302 z m 46.70757,-0.13229 -0.50403,-0.59531 0.59532,0.50403 c 0.55943,0.47366 0.71575,0.68659 0.50403,0.68659 -0.0502,0 -0.31811,-0.26789 -0.59532,-0.59531 z m -119.73257,-0.13229 c -0.3291,-0.41965 -0.31975,-0.429 0.0999,-0.0999 0.44073,0.34565 0.58089,0.56292 0.36312,0.56292 -0.0549,0 -0.2633,-0.20836 -0.46302,-0.46302 z m 46.44299,-0.39687 -0.50403,-0.59532 0.59531,0.50403 c 0.32743,0.27722 0.59532,0.54511 0.59532,0.59531 0,0.21174 -0.21294,0.0554 -0.6866,-0.50402 z m 35.57785,-0.39688 c -0.32911,-0.41964 -0.31975,-0.429 0.0999,-0.0999 0.25466,0.19972 0.46302,0.40808 0.46302,0.46302 0,0.21777 -0.21727,0.0776 -0.56291,-0.36312 z m -83.60834,-1.05833 c -0.3291,-0.41965 -0.31975,-0.42901 0.0999,-0.0999 0.44073,0.34564 0.58089,0.56292 0.36312,0.56292 -0.0549,0 -0.2633,-0.20836 -0.46302,-0.46302 z m 9.78959,-0.26459 c -0.32911,-0.41964 -0.31975,-0.429 0.0999,-0.0999 0.44073,0.34564 0.58089,0.56291 0.36313,0.56291 -0.0549,0 -0.2633,-0.20836 -0.46302,-0.46302 z m 108.24833,-1.25677 c -0.64267,-0.65484 -1.10898,-1.19062 -1.03622,-1.19062 0.0728,0 0.65813,0.53578 1.3008,1.19062 0.64267,0.65485 1.10898,1.19063 1.03622,1.19063 -0.0728,0 -0.65813,-0.53578 -1.3008,-1.19063 z m -36.40535,0.33073 -0.50403,-0.59531 0.59532,0.50403 c 0.32742,0.27721 0.59531,0.5451 0.59531,0.59531 0,0.21173 -0.21294,0.0554 -0.6866,-0.50403 z m -9.93048,-0.13229 c -0.32911,-0.41964 -0.31975,-0.429 0.0999,-0.0999 0.44073,0.34565 0.58089,0.56292 0.36313,0.56292 -0.0549,0 -0.2633,-0.20836 -0.46302,-0.46302 z m -73.025,-0.26458 c -0.32911,-0.41965 -0.31975,-0.42901 0.0999,-0.0999 0.25466,0.19972 0.46302,0.40808 0.46302,0.46302 0,0.21776 -0.21727,0.0776 -0.56291,-0.36312 z m 44.87441,-1.71979 -2.11046,-2.18282 2.18282,2.11046 c 1.20054,1.16076 2.18281,2.14302 2.18281,2.18281 0,0.19298 -0.29503,-0.0831 -2.25517,-2.11045 z m -37.04255,-0.52917 -1.84499,-1.91823 1.91823,1.84499 c 1.78165,1.71362 2.03906,1.99147 1.84499,1.99147 -0.0403,0 -0.90349,-0.86321 -1.91823,-1.91823 z m 73.13064,0.39687 c -0.32911,-0.41964 -0.31975,-0.429 0.0999,-0.0999 0.44073,0.34564 0.58089,0.56291 0.36313,0.56291 -0.0549,0 -0.2633,-0.20836 -0.46302,-0.46302 z m -25.89542,0.0945 c 0,-0.0572 0.18478,-0.17489 0.41062,-0.26156 0.23545,-0.0904 0.34166,-0.046 0.24896,0.10399 -0.15537,0.25141 -0.65958,0.37186 -0.65958,0.15757 z m -1.33716,-1.15279 -0.9118,-0.99219 0.99219,0.9118 c 0.92351,0.84868 1.11384,1.07258 0.9118,1.07258 -0.0442,0 -0.4907,-0.44649 -0.99219,-0.99219 z m 71.71632,-0.99219 c -1.08413,-1.0914 -1.91158,-1.98437 -1.83882,-1.98437 0.0728,0 1.01928,0.89297 2.10341,1.98437 1.08413,1.09141 1.91159,1.98438 1.83883,1.98438 -0.0728,0 -1.01929,-0.89297 -2.10342,-1.98438 z m -128.35666,0.46302 c -0.32911,-0.41964 -0.31975,-0.429 0.0999,-0.0999 0.44073,0.34564 0.58088,0.56291 0.36312,0.56291 -0.0549,0 -0.2633,-0.20835 -0.46302,-0.46302 z m 71.70208,-1.32291 c -0.32911,-0.41965 -0.31975,-0.42901 0.0999,-0.0999 0.25466,0.19972 0.46302,0.40808 0.46302,0.46302 0,0.21776 -0.21727,0.0776 -0.56292,-0.36312 z m -73.025,-0.26459 c -0.3291,-0.41964 -0.31975,-0.429 0.0999,-0.0999 0.44073,0.34564 0.58089,0.56291 0.36312,0.56291 -0.0549,0 -0.2633,-0.20835 -0.46302,-0.46302 z m 44.85549,-0.92604 -0.50403,-0.59531 0.59531,0.50403 c 0.55945,0.47366 0.71577,0.68659 0.50403,0.68659 -0.0502,0 -0.3181,-0.26789 -0.59531,-0.59531 z m 35.19808,-1.32291 -0.77711,-0.8599 0.8599,0.7771 c 0.47294,0.42741 0.85989,0.81437 0.85989,0.8599 0,0.20441 -0.21831,0.0245 -0.94268,-0.7771 z m -73.28959,-0.52917 -0.7771,-0.8599 0.85989,0.77711 c 0.47295,0.42741 0.8599,0.81436 0.8599,0.85989 0,0.20441 -0.21832,0.0245 -0.94269,-0.7771 z m 106.63823,-2.38125 -2.37575,-2.4474 2.4474,2.37574 c 2.27308,2.20652 2.56783,2.51905 2.37574,2.51905 -0.0394,0 -1.14075,-1.10132 -2.44739,-2.44739 z m -72.62262,-0.0662 c -0.64268,-0.65484 -1.10898,-1.19062 -1.03622,-1.19062 0.0728,0 0.65812,0.53578 1.3008,1.19062 0.64268,0.65485 1.10898,1.19063 1.03622,1.19063 -0.0728,0 -0.65812,-0.53578 -1.3008,-1.19063 z m 36.74333,0.19844 c -0.32911,-0.41964 -0.31975,-0.429 0.0999,-0.0999 0.44073,0.34565 0.58089,0.56292 0.36313,0.56292 -0.0549,0 -0.2633,-0.20836 -0.46302,-0.46302 z m -73.025,-0.26458 c -0.32911,-0.41965 -0.31975,-0.42901 0.0999,-0.0999 0.44073,0.34564 0.58088,0.56292 0.36312,0.56292 -0.0549,0 -0.2633,-0.20836 -0.46302,-0.46302 z m 31.63901,-4.89479 -1.04589,-1.12448 1.12448,1.04588 c 1.04576,0.97266 1.24607,1.20307 1.04589,1.20307 -0.0432,0 -0.54924,-0.50601 -1.12448,-1.12447 z m 71.1729,-1.32292 -1.04587,-1.12448 1.12448,1.04588 c 1.04576,0.97267 1.24605,1.20308 1.04587,1.20308 -0.0432,0 -0.54922,-0.50602 -1.12448,-1.12448 z m -215.429274,0.0661 c 0,-0.50932 0.05445,-0.71768 0.121002,-0.46302 0.06655,0.25467 0.06655,0.67138 0,0.92605 -0.06655,0.25466 -0.121002,0.0463 -0.121002,-0.46303 z m 147.970504,-4.82864 -5.28918,-5.35781 5.35781,5.28918 c 4.97817,4.91441 5.47725,5.42644 5.28919,5.42644 -0.0378,0 -2.44876,-2.41101 -5.35782,-5.35781 z m 71.83384,-0.92604 -4.36261,-4.43177 4.43177,4.36261 c 2.43748,2.39944 4.43177,4.39374 4.43177,4.43177 0,0.18879 -0.44786,-0.24531 -4.50093,-4.36261 z m -80.16573,2.18281 c -0.64268,-0.65484 -1.10898,-1.19062 -1.03622,-1.19062 0.0728,0 0.65812,0.53578 1.3008,1.19062 0.64268,0.65484 1.10898,1.19062 1.03622,1.19062 -0.0728,0 -0.65812,-0.53578 -1.3008,-1.19062 z m 71.42326,-1.12448 -0.9118,-0.99219 0.99218,0.9118 c 0.92351,0.84868 1.11385,1.07258 0.91181,1.07258 -0.0442,0 -0.49069,-0.44649 -0.99219,-0.99219 z m -104.70918,-3.10885 c 0.005,-0.43657 0.0647,-0.58313 0.13177,-0.3257 0.0671,0.25743 0.0627,0.61462 -0.01,0.79375 -0.0725,0.17913 -0.12736,-0.0315 -0.12197,-0.46805 z m 72.82707,-8.59896 c 0,-4.729428 0.0359,-6.664194 0.0797,-4.29948 0.0439,2.364713 0.0439,6.23424 0,8.59896 -0.0438,2.36471 -0.0797,0.42995 -0.0797,-4.29948 z m -45.58479,-0.529168 c 0,-0.363802 0.06,-0.51263 0.13345,-0.330729 0.0734,0.181901 0.0734,0.479557 0,0.661457 -0.0734,0.1819 -0.13345,0.0331 -0.13345,-0.330728 z m 72.76042,-0.529167 c 0,-0.363802 0.0601,-0.51263 0.13345,-0.330729 0.0734,0.181901 0.0734,0.479558 0,0.661459 -0.0734,0.181901 -0.13345,0.03307 -0.13345,-0.33073 z m -73.025,-3.439583 c 0,-0.363802 0.0601,-0.51263 0.13345,-0.330729 0.0734,0.181901 0.0734,0.479557 0,0.661458 -0.0734,0.181901 -0.13345,0.03307 -0.13345,-0.330729 z m 72.76041,-0.529166 c 0,-0.363803 0.0601,-0.512631 0.13346,-0.33073 0.0734,0.181901 0.0734,0.479558 0,0.661459 -0.0734,0.181901 -0.13346,0.03307 -0.13346,-0.330729 z M 22.956906,91.662849 c 0,-1.81901 0.04227,-2.563151 0.09394,-1.653646 0.05166,0.909505 0.05166,2.397787 0,3.307292 -0.05167,0.909505 -0.09394,0.165364 -0.09394,-1.653646 z M 238.04588,91.398266 c 0,-0.945886 0.048,-1.332839 0.10671,-0.859896 0.0587,0.472943 0.0587,1.246849 0,1.719791 -0.0587,0.472943 -0.10671,0.08599 -0.10671,-0.859895 z m -109.03164,0.529166 c 0,-0.509323 0.0545,-0.717682 0.12101,-0.46302 0.0665,0.254661 0.0665,0.67138 0,0.926041 -0.0666,0.254662 -0.12101,0.0463 -0.12101,-0.463021 z M 56.23422,90.869099 c 0,-0.363802 0.06006,-0.51263 0.133454,-0.330729 0.0734,0.181901 0.0734,0.479557 0,0.661458 -0.0734,0.181901 -0.133454,0.03307 -0.133454,-0.330729 z m -69.341718,-0.418923 c 0.0127,-0.308226 0.07539,-0.370919 0.159851,-0.159853 0.07643,0.190995 0.06703,0.419198 -0.02088,0.507119 -0.08792,0.08792 -0.150452,-0.06835 -0.138964,-0.347266 z M 190.65236,89.678474 c 0.005,-0.436562 0.0647,-0.583126 0.13177,-0.325694 0.0671,0.257432 0.0627,0.614619 -0.01,0.79375 -0.0725,0.179131 -0.12736,-0.03149 -0.12197,-0.468056 z M 48.275834,88.33351 c 0.0127,-0.308227 0.07539,-0.37092 0.159851,-0.159854 0.07643,0.190995 0.06703,0.419198 -0.02088,0.507119 -0.08792,0.08792 -0.150452,-0.06835 -0.138964,-0.347265 z M 263.38207,88.068926 c 0.0127,-0.308226 0.0754,-0.370919 0.15986,-0.159853 0.0764,0.190995 0.067,0.419198 -0.0209,0.507119 -0.0879,0.08792 -0.15047,-0.06835 -0.13899,-0.347266 z m -56.90629,-9.735139 c 0,-0.05494 0.20836,-0.2633 0.46302,-0.463021 0.41964,-0.329107 0.429,-0.319749 0.0999,0.0999 -0.34564,0.44073 -0.56291,0.580887 -0.56291,0.363125 z m -92.21724,-1.55375 -1.31297,-1.389062 1.38906,1.31297 c 1.29074,1.220037 1.5104,1.465154 1.31297,1.465154 -0.0418,0 -0.66693,-0.625078 -1.38906,-1.389062 z M -7.3075534,76.978474 c 0.3417755,-0.363802 0.6809396,-0.661458 0.7537,-0.661458 0.07276,0 -0.1473411,0.297656 -0.4891166,0.661458 -0.3417756,0.363803 -0.6809396,0.661459 -0.7537001,0.661459 -0.07276,0 0.1473412,-0.297656 0.4891167,-0.661459 z m 68.7916654,0.578668 c 0,-0.04554 0.386953,-0.432488 0.859896,-0.859896 l 0.859896,-0.777105 -0.777105,0.859896 c -0.724371,0.801545 -0.942687,0.981512 -0.942687,0.777105 z m 196.571178,-1.438563 -0.91181,-0.992188 0.99219,0.911799 c 0.9235,0.84868 1.11384,1.072576 0.91181,1.072576 -0.0442,0 -0.4907,-0.446484 -0.99219,-0.992187 z m -215.240948,-0.132292 -0.777105,-0.859896 0.859896,0.777105 c 0.801545,0.724371 0.981512,0.942687 0.777105,0.942687 -0.04554,0 -0.432488,-0.386953 -0.859896,-0.859896 z M 208.59244,76.21712 c 0,-0.05494 0.20836,-0.2633 0.46302,-0.463021 0.41965,-0.329107 0.42901,-0.319749 0.0999,0.0999 -0.34564,0.44073 -0.56292,0.580888 -0.56292,0.363125 z M 97.153252,69.521694 c 0.190995,-0.07643 0.4192,-0.06703 0.507119,0.02088 0.08792,0.08792 -0.06835,0.150453 -0.347266,0.138965 -0.308226,-0.0127 -0.370919,-0.07539 -0.159853,-0.159851 z m 55.297918,0 c 0.19099,-0.07643 0.4192,-0.06703 0.50712,0.02088 0.0879,0.08792 -0.0684,0.150453 -0.34727,0.138965 -0.30823,-0.0127 -0.37092,-0.07539 -0.15985,-0.159851 z m -139.7,-0.264584 c 0.190995,-0.07643 0.419198,-0.06703 0.507119,0.02088 0.08792,0.08792 -0.06835,0.150453 -0.347266,0.138964 -0.308226,-0.0127 -0.370919,-0.07539 -0.159853,-0.15985 z m 69.056249,0 c 0.190995,-0.07643 0.4192,-0.06703 0.507119,0.02088 0.08792,0.08792 -0.06835,0.150453 -0.347266,0.138964 -0.308226,-0.0127 -0.370919,-0.07539 -0.159853,-0.15985 z m 12.964583,0 c 0.190995,-0.07643 0.4192,-0.06703 0.507119,0.02088 0.08792,0.08792 -0.06835,0.150453 -0.347266,0.138964 -0.308226,-0.0127 -0.370919,-0.07539 -0.159853,-0.15985 z m 60.060418,0 c 0.19099,-0.07643 0.4192,-0.06703 0.50712,0.02088 0.0879,0.08792 -0.0684,0.150453 -0.34727,0.138964 -0.30823,-0.0127 -0.37092,-0.07539 -0.15985,-0.15985 z m 12.7,0 c 0.19099,-0.07643 0.4192,-0.06703 0.50712,0.02088 0.0879,0.08792 -0.0684,0.150453 -0.34727,0.138964 -0.30823,-0.0127 -0.37092,-0.07539 -0.15985,-0.15985 z m 60.325,0 c 0.191,-0.07643 0.4192,-0.06703 0.50712,0.02088 0.0879,0.08792 -0.0684,0.150453 -0.34726,0.138964 -0.30824,-0.0127 -0.37092,-0.07539 -0.15986,-0.15985 z m 12.43541,0 c 0.19101,-0.07643 0.41921,-0.06703 0.50713,0.02088 0.0879,0.08792 -0.0684,0.150453 -0.34727,0.138964 -0.30824,-0.0127 -0.37092,-0.07539 -0.15986,-0.15985 z M 18.035169,68.977898 c 0.768863,-0.05362 1.959488,-0.05305 2.645833,0.0013 0.686345,0.05431 0.05728,0.09817 -1.397931,0.09748 -1.455208,-7.94e-4 -2.016765,-0.04512 -1.247902,-0.09873 z m 69.04738,2.65e-4 c 0.763984,-0.05345 2.014141,-0.05345 2.778125,0 0.763984,0.05345 0.138906,0.09718 -1.389063,0.09718 -1.527968,0 -2.153046,-0.04373 -1.389062,-0.09718 z m 73.025001,0 c 0.76398,-0.05345 2.01414,-0.05345 2.77812,0 0.76399,0.05345 0.13891,0.09718 -1.38906,0.09718 -1.52797,0 -2.15305,-0.04373 -1.38906,-0.09718 z m 73.03386,-2.65e-4 c 0.76888,-0.05362 1.9595,-0.05305 2.64583,0.0013 0.68636,0.05431 0.0573,0.09817 -1.39792,0.09748 -1.45521,-7.94e-4 -2.01676,-0.04512 -1.24791,-0.09873 z"
         id="path1175" /><path
         style="fill:#39b348;stroke-width:0.264583"
         d="m 84.105986,196.938 c -17.191783,-0.83143 -26.248803,-7.19789 -27.641517,-19.43006 -0.215358,-1.89148 -0.272899,-14.71226 -0.204195,-45.49613 0.08604,-38.552829 0.139078,-43.03654 0.527481,-44.593425 0.641985,-2.573348 1.607423,-5.086427 2.612186,-6.799654 1.132441,-1.930929 4.690827,-5.488562 6.639531,-6.638123 5.658041,-3.337737 12.518819,-4.807342 22.442863,-4.807342 12.910815,0 20.994345,2.549864 26.385995,8.323183 2.10859,2.257864 3.42601,4.599128 4.47823,7.958542 l 0.74276,2.3714 0.0706,44.803629 c 0.0697,44.19505 0.0633,44.83427 -0.46515,47.05951 -0.66267,2.7902 -2.22733,5.85175 -4.01668,7.85935 -4.67076,5.24047 -13.40549,8.83875 -22.5763,9.30032 -1.455209,0.0732 -3.181615,0.16637 -3.836459,0.20695 -0.654843,0.0406 -2.976562,-0.0126 -5.159375,-0.11815 z m 5.904236,-17.44772 c 0.858879,-0.1842 1.559168,-0.54925 2.063546,-1.07571 l 0.763468,-0.79689 v -44.66943 c 0,-44.280537 -0.0046,-44.674512 -0.528542,-45.25346 -0.929891,-1.027518 -1.943875,-1.37559 -3.983979,-1.367589 -2.126467,0.0083 -3.177784,0.404116 -4.063074,1.529585 l -0.55253,0.702427 v 44.405107 44.40511 l 0.810374,0.92297 c 1.143207,1.30204 3.05761,1.71969 5.490737,1.19788 z m 49.595878,13.53569 c -5.66882,-3.00807 -8.97808,-7.52081 -10.13367,-13.81899 -0.34222,-1.86518 -0.39152,-26.86465 -0.0841,-42.63111 0.15486,-7.94134 0.22093,-8.92791 0.59692,-8.91363 0.23253,0.009 4.53045,4.90518 9.55091,10.88077 5.02047,5.97559 10.43782,12.41821 12.03855,14.31693 l 2.91041,3.45222 0.13229,10.16164 0.1323,10.16164 0.94938,0.86971 0.94939,0.86971 -7.38786,7.77472 c -4.06333,4.2761 -7.46711,7.80117 -7.56397,7.8335 -0.0969,0.0323 -1.03762,-0.39838 -2.09058,-0.95711 z m 25.53065,-29.72719 c -0.0845,-4.32223 -0.223,-6.21431 -0.52118,-7.11849 -0.32695,-0.9914 -2.30446,-3.39012 -10.14272,-12.30312 -5.35513,-6.08939 -11.2948,-12.67896 -13.19928,-14.64349 -6.49817,-6.70307 -8.59638,-9.32868 -10.18566,-12.74591 -1.87676,-4.03534 -2.00456,-5.09482 -1.98923,-16.490546 0.0125,-9.283965 0.0573,-10.255858 0.58506,-12.687051 0.68706,-3.165089 2.35931,-6.74392 4.20072,-8.990105 3.4154,-4.166179 9.12753,-7.029788 16.75887,-8.401566 3.84095,-0.690435 13.65131,-0.964205 17.77434,-0.496014 12.57626,1.428096 19.5869,6.621174 21.80912,16.154945 0.4155,1.782571 0.47318,4.197688 0.56715,23.748287 0.0962,20.00831 0.0695,21.77738 -0.33038,21.93084 -0.52587,0.20179 -0.33252,0.38887 -14.43714,-13.96878 l -10.82564,-11.01986 -0.004,-8.823891 c -0.004,-9.470361 -0.0245,-9.625761 -1.38801,-10.638107 -0.9959,-0.739391 -3.75664,-0.923745 -4.90905,-0.327811 -2.73443,1.414029 -3.24524,3.640132 -2.7139,11.827084 0.56983,8.779875 0.82861,9.301875 8.77451,17.699315 3.23586,3.41974 8.76345,9.19428 12.28353,12.8323 3.52008,3.63802 7.19345,7.50755 8.16303,8.59895 2.00062,2.25199 4.48307,5.71388 4.35392,6.07174 -0.0905,0.25069 -24.27575,25.67826 -24.42372,25.67826 -0.047,0 -0.13716,-2.64914 -0.20044,-5.88698 z m 42.31683,-41.27499 c -2.70109,-3.18024 -4.59845,-7.01968 -5.21305,-10.54898 -0.20269,-1.16393 -0.26843,-5.24044 -0.20243,-12.553739 l 0.0977,-10.830097 0.72991,-2.371399 c 2.69278,-8.748467 9.23227,-13.776849 20.54336,-15.796331 3.9357,-0.702678 13.46483,-0.966489 17.79444,-0.492631 5.37957,0.58877 11.73324,2.605461 13.93156,4.42196 l 0.63746,0.526743 -8.70725,9.134991 -8.70725,9.134988 -0.20072,-2.146869 c -0.22436,-2.400175 -0.64177,-3.19723 -2.06705,-3.947109 -1.23333,-0.648899 -3.90906,-0.513779 -4.93927,0.249425 -2.41631,1.790041 -2.80326,4.375698 -2.01758,13.481288 l 0.16187,1.87631 -10.12896,10.62525 c -5.57093,5.84389 -10.21988,10.62526 -10.33099,10.62526 -0.1111,0 -0.73291,-0.62508 -1.38179,-1.38906 z"
         id="path1173" /><path
         style="fill:#2b9244;stroke-width:0.264583"
         d="M 14.917446,196.92098 C 9.9244625,196.70037 5.4416377,195.948 1.7401143,194.7094 c -6.3976699,-2.1408 -10.3254252,-5.31903 -12.7415153,-10.3101 -2.135926,-4.41231 -1.994694,-0.81549 -1.994694,-50.79999 V 89.149307 l 0.624935,-2.479674 c 0.343715,-1.363822 1.168416,-3.566478 1.832671,-4.894792 0.9840517,-1.967817 1.6284602,-2.831642 3.4793635,-4.664075 3.2960045,-3.263114 6.82785324,-5.15416 12.0546969,-6.454407 4.6735576,-1.162608 6.6968156,-1.351208 14.4197916,-1.344155 7.873891,0.0072 9.999202,0.24682 14.380506,1.621399 6.221923,1.952051 10.80068,5.714568 12.894913,10.596178 1.445969,3.37053 1.634672,4.911228 1.743363,14.23411 l 0.101796,8.731249 -11.947856,6.87917 c -6.571321,3.78354 -12.177505,6.91807 -12.458186,6.96562 -0.280681,0.0476 -0.699333,-0.0704 -0.930336,-0.26212 -0.37733,-0.31315 -0.40644,-1.83084 -0.286475,-14.93621 0.103201,-11.274146 0.05889,-14.765162 -0.195098,-15.369208 -0.191143,-0.454602 -0.718397,-0.966533 -1.260301,-1.223685 -1.19735,-0.568179 -3.6708,-0.573045 -4.858265,-0.0096 -1.810266,0.859028 -1.682383,-2.67095 -1.678078,46.319413 0.003,34.74713 0.07507,44.53761 0.331322,45.04396 0.547029,1.08092 1.970529,1.73258 3.76582,1.72396 1.968193,-0.009 3.03603,-0.51034 3.645043,-1.70978 0.439674,-0.86592 0.458411,-1.82326 0.290017,-14.81636 -0.167502,-12.92428 -0.148484,-13.9168 0.27337,-14.26687 0.325568,-0.27017 0.633783,-0.30747 1.093235,-0.13229 0.351914,0.13418 5.937991,3.5777 12.413504,7.65229 l 11.773659,7.40833 0.0061,8.37265 c 0.0055,7.58506 -0.04278,8.53083 -0.51357,10.05417 -1.811284,5.86078 -8.871532,11.17107 -18.048229,13.57476 -4.460311,1.16831 -8.227319,1.45836 -15.034178,1.1576 z m 141.022914,0.12921 c -2.17111,-0.12461 -5.69897,-0.59043 -7.9298,-1.04705 -2.52433,-0.5167 -6.09312,-1.64067 -6.09312,-1.91899 0,-0.11771 3.34736,-3.73581 7.43858,-8.04023 6.94272,-7.30453 7.4818,-7.80979 8.08702,-7.57969 1.1882,0.45175 4.31749,0.29406 5.49717,-0.27701 1.72594,-0.83552 1.99598,-1.55071 1.99598,-5.28621 v -3.21456 l 12.4701,-13.07682 c 6.85855,-7.19225 12.56253,-13.01969 12.6755,-12.94986 0.34018,0.21024 1.83545,3.99601 2.43498,6.16499 0.52003,1.88134 0.56922,2.82915 0.66832,12.87871 0.11643,11.80824 -0.0525,14.37863 -1.1823,17.99167 -1.00244,3.20567 -2.3278,5.50373 -4.51518,7.82893 -3.86799,4.1117 -8.66376,6.44865 -15.93683,7.76594 -4.13786,0.74945 -10.44555,1.05661 -15.61042,0.76018 z m 73.15729,-0.12135 c -6.7134,-0.3168 -11.6337,-1.43083 -16.13958,-3.65424 -5.37102,-2.6503 -8.53895,-6.35619 -10.22847,-11.96536 -0.53936,-1.79069 -0.59174,-2.6066 -0.69334,-10.80056 -0.0605,-4.87495 -0.0245,-16.51331 0.0799,-25.86302 0.17267,-15.46184 0.22884,-16.99896 0.62106,-16.99373 0.2409,0.003 5.74443,6.31555 12.46977,14.30234 l 12.03854,14.29658 0.13229,10.02038 c 0.12671,9.5967 0.15539,10.05195 0.67852,10.76694 0.89591,1.22442 2.34913,1.78916 4.61315,1.7927 2.58452,0.004 3.85696,-0.60456 4.70849,-2.2521 0.60526,-1.17103 0.60712,-1.20842 0.50949,-10.30342 -0.0712,-6.63291 -0.19252,-9.39076 -0.44379,-10.0889 -0.36719,-1.02022 -18.39606,-21.68269 -24.88253,-28.51727 -1.96453,-2.06997 -3.57187,-3.86306 -3.57187,-3.98464 0,-0.12159 4.52437,-4.96959 10.05416,-10.77335 l 10.05417,-10.55228 0.45347,1.80136 c 0.24942,0.99075 1.02063,2.89945 1.71379,4.24156 1.11688,2.16246 1.81668,3.02758 6.14859,7.60113 2.68854,2.83851 7.93174,8.19702 11.65154,11.9078 11.20145,11.17428 13.9609,14.73761 15.70969,20.28613 1.05299,3.341 1.23229,5.7669 1.23229,16.67307 0,8.92722 -0.0601,10.42255 -0.51093,12.70694 -1.0667,5.40546 -2.47319,8.14901 -5.94408,11.59467 -1.93455,1.92048 -2.89383,2.64076 -4.87466,3.66016 -6.5406,3.36597 -14.39936,4.62472 -25.5797,4.09711 z m 25.92377,-73.31715 c -4.36724,-4.40223 -9.99241,-10.09536 -12.50035,-12.6514 l -4.55988,-4.64735 v -6.625324 -6.62533 l 6.26253,-6.586699 c 3.4444,-3.622683 7.50589,-7.871944 9.02552,-9.442801 l 2.76299,-2.856109 2.15313,2.194891 c 2.44819,2.495666 3.78761,4.892942 4.75252,8.50579 0.56939,2.132018 0.5756,2.394953 0.5756,24.358142 0,14.6346 -0.0906,22.23309 -0.2658,22.29155 -0.14618,0.0488 -3.839,-3.51313 -8.20626,-7.91536 z"
         id="path1171" /></g></g></svg>
