<svg class="logo" width="247" height="39" viewBox="0 0 247 39" fill="none" xmlns="http://www.w3.org/2000/svg">
    <path d="M42.06 10.7576C40.0956 8.8594 37.5929 7.65632 34.9557 7.3355C34.8211 7.30876 34.7135 7.25529 34.6327 7.17509C30.9998 2.97767 25.7523 0.598236 20.2088 0.598236C15.1227 0.598236 10.3596 2.57664 6.75356 6.15915C3.14757 9.74166 1.18311 14.4738 1.18311 19.5267C1.21002 29.9267 9.74061 38.4018 20.2088 38.4018C23.2227 38.4018 26.2098 37.6799 28.8739 36.3164C30.2194 35.6213 31.0537 34.2846 30.9998 32.8409C30.946 31.3972 30.1118 30.1406 28.7932 29.5524C24.7297 27.7344 22.2001 23.8578 22.2001 19.4733C22.2001 13.2707 27.2862 8.21776 33.5294 8.21776C33.6371 8.21776 33.7716 8.21776 33.8793 8.21776C34.0407 8.21776 34.1753 8.29797 34.2829 8.40491C35.5477 9.79514 36.1397 11.0517 36.1397 12.3617C36.1397 13.8321 35.2786 14.9818 33.6102 15.8105C30.5693 17.3077 29.0354 19.6604 29.0354 22.8152C29.0354 26.9858 32.2646 30.2475 36.3819 30.2475C41.6295 30.2475 45.7198 25.4352 45.7198 19.3129C45.7737 16.1314 44.455 13.0836 42.06 10.7576ZM37.1892 12.4152C37.1892 11.1052 36.7048 9.84861 35.7092 8.53858V8.51185C35.7092 8.51185 35.7092 8.51185 35.7361 8.51185C37.8351 8.96634 39.7457 9.98228 41.3334 11.5062C43.5401 13.645 44.7511 16.4522 44.7511 19.3931C44.7511 24.954 41.0912 29.3118 36.4357 29.3118C32.8836 29.3118 30.1118 26.5046 30.1118 22.8954C30.1118 20.1149 31.4304 18.1365 34.1215 16.7997C36.1397 15.7838 37.1892 14.2599 37.1892 12.4152ZM21.1775 19.5267C21.1775 24.3123 23.9224 28.5098 28.3357 30.5149C29.2776 30.9427 30.0311 32.1725 29.9772 33.1884C29.9234 34.1241 29.3852 34.9262 28.551 35.3807C25.9945 36.7175 23.1151 37.4126 20.2088 37.4126C10.3057 37.4126 2.23261 29.392 2.2057 19.5535C2.2057 14.7679 4.06252 10.2764 7.48014 6.881C10.8978 3.48563 15.4187 1.61417 20.2088 1.61417C25.1872 1.61417 29.7889 3.56584 33.2334 7.14835C33.2603 7.17509 33.2603 7.20182 33.2334 7.20182C33.2334 7.20182 33.2065 7.22856 33.1796 7.22856C29.9503 7.30876 26.9364 8.64552 24.6759 10.9447C22.4154 13.2707 21.1775 16.2918 21.1775 19.5267Z" fill="black"></path>
    <path d="M20.2088 38.6691C9.57921 38.6691 0.914062 30.0871 0.914062 19.5267C0.914062 14.3936 2.90543 9.58126 6.56525 5.94527C10.2251 2.33602 15.0689 0.330887 20.2088 0.330887C25.8331 0.330887 31.1344 2.76379 34.8212 6.96121C34.8481 7.01468 34.9019 7.04142 34.9826 7.04142C37.6737 7.36224 40.2571 8.61879 42.2484 10.5437C44.6973 12.9232 46.0697 16.0512 46.0697 19.3663C46.0697 25.6491 41.8448 30.5684 36.4627 30.5684C32.184 30.5684 28.8471 27.1997 28.8471 22.8686C28.8471 19.6069 30.4348 17.174 33.5564 15.6234C35.1441 14.8481 35.9245 13.7519 35.9245 12.4152C35.9245 11.1854 35.3594 9.98228 34.1215 8.61879C34.0677 8.56532 33.9869 8.51185 33.9062 8.51185C33.7986 8.51185 33.664 8.51185 33.5564 8.51185C27.4477 8.51185 22.4962 13.4579 22.4962 19.5C22.4962 23.7776 24.972 27.5473 28.9278 29.3385C30.3271 29.9802 31.2421 31.3169 31.2959 32.8676C31.3497 34.3915 30.4348 35.8352 29.0085 36.5838C26.3175 37.9473 23.2766 38.6691 20.2088 38.6691ZM20.2088 0.86559C15.2035 0.86559 10.4942 2.81726 6.94199 6.3463C3.38982 9.87534 1.45227 14.554 1.45227 19.5267C1.47918 29.793 9.87523 38.1344 20.2088 38.1344C23.169 38.1344 26.1291 37.4393 28.7663 36.1025C30.0042 35.4609 30.7846 34.2043 30.7577 32.8943C30.7039 31.5576 29.9235 30.408 28.7125 29.8465C24.5414 27.9751 21.958 24.0182 21.958 19.5267C21.958 13.1638 27.1786 8.00388 33.5564 8.00388C33.6909 8.00388 33.7986 8.00388 33.9331 8.00388C34.1484 8.00388 34.3637 8.11082 34.5252 8.27123C35.8438 9.71493 36.4627 11.0517 36.4627 12.4152C36.4627 13.9926 35.5747 15.2224 33.7717 16.1046C30.8384 17.5483 29.3584 19.8476 29.3584 22.8686C29.3584 26.8789 32.48 30.0337 36.4358 30.0337C41.5219 30.0337 45.5046 25.355 45.5046 19.3663C45.5046 16.2116 44.2129 13.2172 41.8448 10.9447C39.9342 9.10002 37.4584 7.89694 34.9019 7.57612C34.7135 7.54938 34.5252 7.46918 34.4175 7.30877C30.8384 3.21829 25.6716 0.86559 20.2088 0.86559ZM20.2088 37.6532C10.1443 37.6532 1.96357 29.5257 1.93666 19.5267C1.93666 14.6877 3.82039 10.116 7.29183 6.66712C10.7364 3.21829 15.338 1.34682 20.2088 1.34682C25.2411 1.34682 29.9504 3.35196 33.4218 6.96121C33.5026 7.04141 33.5295 7.17509 33.4757 7.30877C33.4218 7.41571 33.3142 7.49591 33.1796 7.52265C30.0311 7.60285 27.071 8.91288 24.8643 11.1586C22.6577 13.4044 21.4467 16.372 21.4467 19.5267C21.4467 24.2054 24.1377 28.3226 28.4703 30.2743C29.5198 30.7555 30.3271 32.0655 30.2733 33.1884C30.2195 34.2311 29.6275 35.1133 28.6856 35.5946C26.0753 36.9581 23.169 37.6532 20.2088 37.6532ZM20.2088 1.88153C15.4726 1.88153 11.0324 3.72625 7.66857 7.06815C4.30477 10.41 2.47487 14.8214 2.47487 19.5267C2.50178 29.2316 10.4403 37.1185 20.2088 37.1185C23.0613 37.1185 25.9138 36.4234 28.4165 35.1133C29.1969 34.7123 29.6544 33.9905 29.7082 33.1349C29.762 32.2259 29.0623 31.1031 28.2281 30.7288C23.7072 28.6969 20.9085 24.3925 20.9085 19.5C20.9085 16.2116 22.1733 13.1103 24.4876 10.7576C26.6942 8.51185 29.5736 7.20183 32.6952 6.98794C29.3584 3.69952 24.9451 1.88153 20.2088 1.88153ZM36.4358 29.5524C32.7491 29.5524 29.8427 26.6116 29.8427 22.8686C29.8427 19.9812 31.1883 17.9226 33.9869 16.5324C35.9245 15.5699 36.9471 14.153 36.9471 12.4152C36.9471 11.1586 36.4896 9.95555 35.5208 8.699C35.4401 8.59205 35.4401 8.45838 35.5208 8.35144L35.6016 8.21776H35.763C35.7899 8.21776 35.8169 8.21776 35.8438 8.21776C37.9697 8.67226 39.9611 9.74167 41.5488 11.2923C43.8092 13.4846 45.0471 16.3453 45.0471 19.3663C45.0202 25.0877 41.2528 29.5524 36.4358 29.5524ZM36.3012 8.91288C37.0816 10.0892 37.4584 11.2388 37.4584 12.4152C37.4584 14.3669 36.3282 15.971 34.2022 17.0136C31.6188 18.2969 30.354 20.2219 30.354 22.8686C30.354 26.3175 33.0182 29.0177 36.4089 29.0177C40.9298 29.0177 44.4551 24.7936 44.4551 19.3663C44.4551 16.4789 43.271 13.7519 41.1182 11.6666C39.7727 10.3566 38.1042 9.39411 36.3012 8.91288Z" fill="black"></path>
    <path d="M113.379 12.3617H115.963C116.959 12.3617 117.497 12.8964 117.497 13.8856V27.4136C117.497 28.0285 117.847 28.3761 118.465 28.3761H118.573C119.192 28.3761 119.542 28.0285 119.542 27.4136V13.8856C119.542 12.8964 120.08 12.3617 121.076 12.3617H123.632C124.224 12.3617 124.601 12.0142 124.601 11.5062C124.601 10.9982 124.197 10.6507 123.632 10.6507H113.379C112.787 10.6507 112.411 10.9982 112.411 11.5062C112.411 12.0142 112.814 12.3617 113.379 12.3617Z" fill="black"></path>
    <path d="M101.027 18.083C101.027 18.083 100.139 18.0028 99.3052 17.6018C98.1749 17.0671 97.6098 16.2383 97.6098 15.1154C97.6098 14.0995 98.3364 12.1478 101.054 12.1478C101.969 12.1478 102.75 12.4419 103.53 13.0568C104.068 13.4579 104.58 13.4846 104.983 13.137C105.172 12.9766 105.279 12.736 105.279 12.4954C105.279 12.228 105.172 11.9607 104.983 11.7735C104.068 10.8645 102.507 10.2496 101.054 10.2496C97.5022 10.2496 95.6453 12.6825 95.6453 15.1154C95.6453 17.9761 97.6636 19.7674 101.054 19.9812C101.054 19.9812 102.023 20.008 102.965 20.409C104.203 20.9437 105.091 21.8794 105.091 23.1627C105.091 24.847 103.826 26.7987 101.054 26.7987C99.0361 26.7987 97.6636 25.2481 97.1792 24.5797C97.0178 24.3658 96.7756 24.2054 96.5334 24.1787C96.2912 24.1519 96.049 24.2054 95.8606 24.3658C95.3493 24.7401 95.4301 25.3283 95.6723 25.7026C96.5603 27.1463 98.4709 28.7236 101.081 28.7236C104.58 28.7236 107.19 26.4779 107.19 23.1627C107.163 21.3982 106.113 18.4039 101.027 18.083Z" fill="black"></path>
    <path d="M83.4011 10.2764C80.118 10.2764 77.5615 12.9499 77.5615 16.3453V27.4136C77.5615 28.0285 77.9114 28.3761 78.5303 28.3761H78.6379C79.2569 28.3761 79.6067 28.0285 79.6067 27.4136V21.8794C79.6067 20.8902 80.1449 20.3555 81.1406 20.3555H85.6347C86.6303 20.3555 87.1685 20.8902 87.1685 21.8794V27.3869C87.1685 28.0018 87.5184 28.3493 88.1373 28.3493H88.245C88.8639 28.3493 89.2137 28.0018 89.2137 27.3869V16.3453C89.2137 12.9499 86.6573 10.2764 83.4011 10.2764ZM87.1685 16.3453V17.1473C87.1685 18.1365 86.6303 18.6712 85.6347 18.6712H81.1406C80.1449 18.6712 79.6067 18.1365 79.6067 17.1473V16.3453C79.6067 14.3401 80.9253 12.2013 83.3742 12.2013C85.8499 12.2013 87.1685 14.3401 87.1685 16.3453Z" fill="black"></path>
    <path d="M66.1785 28.7504C68.7888 28.7504 70.7533 27.2799 71.4798 25.8897C71.7489 25.4085 71.6144 24.847 71.1838 24.553C70.9685 24.4193 70.7264 24.3658 70.4572 24.3925C70.1881 24.446 69.946 24.6064 69.8114 24.847C69.1386 25.8362 67.9277 26.8254 66.2054 26.8254C63.4605 26.8254 62.1688 24.6866 62.1688 22.6815V21.8794C62.1688 20.8902 62.707 20.3555 63.7027 20.3555H67.2818C67.8738 20.3555 68.2506 20.008 68.2506 19.5C68.2506 18.992 67.8469 18.6445 67.2818 18.6445H63.7027C62.707 18.6445 62.1688 18.1098 62.1688 17.1206V16.3185C62.1688 14.3134 63.7566 12.1746 66.2054 12.1746C67.9546 12.1746 69.1117 13.1638 69.7307 14.153C69.8652 14.3668 70.0805 14.5273 70.3496 14.5807C70.6187 14.6342 70.8878 14.5807 71.1031 14.4203C71.5337 14.1262 71.6682 13.5381 71.3991 13.0836C70.6994 11.7201 68.7619 10.2496 66.1785 10.2496C62.4918 10.2496 60.0698 12.9232 60.0698 16.3185V22.6815C60.0698 26.0769 62.6263 28.7504 66.1785 28.7504Z" fill="black"></path>
    <path d="M167.744 12.8028C167.691 12.5622 167.529 12.3483 167.314 12.2147C166.264 11.5196 164.542 10.2897 162.201 10.2897C158.783 10.2897 156.092 12.5622 156.092 16.3586V27.427C156.092 28.0419 156.442 28.3894 157.061 28.3894H157.169C157.788 28.3894 158.137 28.0419 158.137 27.427V21.8661C158.137 20.8769 158.676 20.3422 159.671 20.3422H165.43C166.022 20.3422 166.399 19.9946 166.399 19.4866C166.399 18.9787 165.995 18.6311 165.43 18.6311H159.671C158.676 18.6311 158.137 18.0964 158.137 17.1072V16.3051C158.137 14.0327 159.725 12.1612 162.174 12.1612C163.681 12.1612 164.892 13.0167 166.211 13.792C166.695 14.0861 167.26 13.9792 167.556 13.498C167.771 13.3108 167.798 13.0435 167.744 12.8028Z" fill="black"></path>
    <path d="M144.44 10.263C141.157 10.263 138.601 12.9365 138.601 16.3319V22.6681C138.601 26.0635 141.157 28.737 144.44 28.737C147.723 28.737 150.28 26.0635 150.28 22.6681V16.3319C150.28 12.9365 147.723 10.263 144.44 10.263ZM148.235 16.3319V22.6681C148.235 24.6733 146.916 26.8121 144.467 26.8121C142.018 26.8121 140.7 24.6733 140.7 22.6681V16.3319C140.7 14.3267 142.018 12.1879 144.467 12.1879C146.916 12.1879 148.235 14.3267 148.235 16.3319Z" fill="black"></path>
    <path d="M245.169 10.6373C244.577 10.6373 244.228 10.9848 244.228 11.5998V22.8285C244.228 23.2296 244.093 23.4969 243.905 23.5504C243.689 23.6039 243.393 23.39 243.205 22.9889L237.15 11.5463C236.854 10.9581 236.424 10.6373 235.939 10.6373H235.401C234.782 10.6373 234.432 10.9848 234.432 11.5998V27.3735C234.432 27.9884 234.782 28.336 235.374 28.336C235.966 28.336 236.316 27.9884 236.316 27.3735V16.0111C236.316 15.61 236.45 15.3427 236.639 15.2892C236.854 15.2357 237.15 15.4496 237.338 15.8506L243.42 27.4537C243.716 28.0419 244.147 28.3627 244.631 28.3627H245.116C245.735 28.3627 246.084 28.0152 246.084 27.4002V11.6265C246.111 10.9848 245.761 10.6373 245.169 10.6373Z" fill="black"></path>
    <path d="M222.78 10.263C219.497 10.263 216.94 12.9365 216.94 16.3319V22.6681C216.94 26.0635 219.497 28.737 222.78 28.737C226.063 28.737 228.62 26.0635 228.62 22.6681V16.3319C228.62 12.9365 226.063 10.263 222.78 10.263ZM226.547 16.3319V22.6681C226.547 24.6733 225.229 26.8121 222.78 26.8121C220.331 26.8121 219.013 24.6733 219.013 22.6681V16.3319C219.013 14.3267 220.331 12.1879 222.78 12.1879C225.229 12.1879 226.547 14.3267 226.547 16.3319Z" fill="black"></path>
    <path d="M205.127 10.263C201.844 10.263 199.287 12.9365 199.287 16.3319V22.6681C199.287 26.0635 201.844 28.737 205.127 28.737C208.41 28.737 210.966 26.0635 210.966 22.6681V16.3319C210.966 12.9365 208.41 10.263 205.127 10.263ZM208.921 16.3319V22.6681C208.921 24.6733 207.602 26.8121 205.154 26.8121C202.705 26.8121 201.386 24.6733 201.386 22.6681V16.3319C201.386 14.3267 202.705 12.1879 205.154 12.1879C207.576 12.1879 208.921 14.3267 208.921 16.3319Z" fill="black"></path>
    <path d="M192.425 10.6373H191.941C191.402 10.6373 190.945 10.9848 190.703 11.5463L188.281 17.6152C188.146 17.936 187.904 18.2835 187.581 18.2835C187.258 18.2835 186.989 17.9093 186.882 17.6152L184.46 11.5463C184.217 10.9848 183.76 10.6373 183.222 10.6373H182.737C182.118 10.6373 181.769 10.9848 181.769 11.5998V27.3735C181.769 27.9884 182.118 28.336 182.71 28.336C183.302 28.336 183.652 27.9884 183.652 27.3735V17.428C183.652 16.9735 183.841 16.7062 184.029 16.6794C184.244 16.626 184.513 16.8666 184.675 17.2676L186.774 22.2136C186.935 22.5612 187.178 23.0424 187.608 23.0424C188.039 23.0424 188.308 22.5612 188.442 22.2136L190.541 17.2676C190.703 16.8666 190.972 16.6527 191.187 16.6794C191.376 16.7062 191.564 16.9735 191.564 17.428V27.4002C191.564 28.0152 191.914 28.3627 192.506 28.3627C193.098 28.3627 193.448 28.0152 193.448 27.4002V11.6265C193.421 11.0116 193.044 10.6373 192.425 10.6373Z" fill="black"></path>
</svg>