<?xml version="1.0" encoding="UTF-8"?>
<svg width="1134" height="454" version="1.1" viewBox="0 0 1134 454" xml:space="preserve" xmlns="http://www.w3.org/2000/svg" xmlns:cc="http://creativecommons.org/ns#" xmlns:dc="http://purl.org/dc/elements/1.1/" xmlns:rdf="http://www.w3.org/1999/02/22-rdf-syntax-ns#"><metadata><rdf:RDF><cc:Work rdf:about=""><dc:format>image/svg+xml</dc:format><dc:type rdf:resource="http://purl.org/dc/dcmitype/StillImage"/><dc:title/></cc:Work></rdf:RDF></metadata><defs><clipPath id="clipPath18"><path d="m0 0h850v340h-850z"/></clipPath></defs><g transform="matrix(1.33 0 0 -1.33 0 454)"><g clip-path="url(#clipPath18)"><g transform="translate(71.8 139)"><path d="m0 0c-18.7 0-32.9-10.8-32.9-25.9 0-13.8 8.51-21.6 29.5-27 20.6-5.68 26.1-10 26.1-21.9 0-12.1-10-18.9-24.4-18.9-12.1 0-20.8 3.78-29.1 10.4l-6.05-7c8.51-7.19 19.3-12.7 35.4-12.7 19.7 0 35.8 10.4 35.8 28.8 0 16.8-10.2 24.2-31.8 29.9-17.8 4.73-24 8.89-24 18.7 0 10.2 8.89 16.6 21.9 16.6 10 0 17.4-3.03 26.1-9.08l5.11 7.19c-9.27 7.19-18.9 11-31.6 11m109 0c-25.9 0-42-19.9-42-51.6s15.5-51.5 41.8-51.5c26.1 0 42 19.9 42 51.8 0 32.3-15.5 51.3-41.8 51.3m0-9.27c19.1 0 30.3-14.2 30.3-42 0-28.4-11.5-42.6-30.5-42.6s-30.1 14.4-30.1 42.2c0 28.4 11.5 42.4 30.3 42.4m114 39.7c6.24 0 12.3-1.51 18.7-4.35l3.78 8.13c-7.38 3.4-14.6 5.3-23.1 5.3-17.2 0-27.4-9.84-27.4-25.3v-16.3h-17.2v-8.89h17.2v-90h11v90h24.6l1.51 8.89h-26.1v15.9c0 11.7 5.86 16.6 17 16.6m83.6-120c-4.92-2.84-9.65-4.35-15.1-4.35-10 0-14.6 5.68-14.6 17.2v65.4h24.2l1.32 8.89h-25.5v25l-11-1.32v-23.6h-16.6v-8.89h16.6v-66c0-17.2 9.27-26.1 24.2-26.1 7.94 0 14.8 2.27 20.8 6.24zm142 87.2h-10.8l-21-90.6-22.7 90.6h-12.5l-23.1-90.4-21.2 90.4h-11.4l24.8-98.9h14.6l22.3 88.7 21.9-88.7h14.8zm95.5-77v47.7c0 20.2-9.84 31.4-32.3 31.4-10.4 0-20.2-2.27-31.2-6.62l2.84-8.32c9.84 3.59 18.9 5.68 26.9 5.68 16.5 0 22.9-7 22.9-22.7v-9.65h-18.9c-25.3 0-41-11.2-41-32 0-17.6 11.5-29.5 30.6-29.5 13.2 0 23.8 5.3 30.8 16.6 1.51-10.6 6.62-14.9 15.3-16.6l2.46 7.76c-5.3 2.08-8.32 5.3-8.32 16.3m-38.4-15.1c-13.1 0-20.8 7.57-20.8 21.2 0 15.7 11.2 23.5 31 23.5h17.2v-27.2c-6.24-11.2-14.9-17.4-27.4-17.4m128 94.2c-13.8 0-22.7-7.94-28-24.2l-0.946 22.1h-9.46v-98.9h11v60.5c5.3 20.2 12.7 30.1 26.5 30.1 3.4 0 5.86-0.378 8.7-1.14l2.08 10.4c-2.65 0.757-6.05 1.14-9.84 1.14m108-47.9c0 29.1-12.9 47.9-38.6 47.9-24.2 0-39.5-20.8-39.5-52.4 0-31.8 15.9-50.7 42-50.7 13.1 0 23.1 4.54 32.3 12.1l-5.11 7c-8.7-6.43-15.9-9.84-26.7-9.84-17 0-29.5 11.2-30.8 38h66c0.189 1.89 0.378 4.92 0.378 7.94m-10.8 0.568h-55.6c1.13 26.9 12.7 38.2 28.2 38.2 18.7 0 27.4-13.8 27.4-35.4z" fill="#f4872e"/></g><g transform="translate(777 207)"><path d="m0 0c0-5.15 4.03-10 12.3-10 8.3 0 12.5 3.96 12.5 9.91 0 2.59-0.736 4.97-1.96 7.11h-11.3v-7l1.75 0.245v4.69h8.51c0.84-1.51 1.26-3.08 1.26-5.04 0-4.73-3.33-7.7-10.7-7.7-7.63 0-10.5 3.96-10.5 7.81 0 2.14 0.595 3.64 1.93 5.32l-1.33 1.26c-1.58-1.96-2.38-3.78-2.38-6.58m5.67 31.2c0-2.42 1.47-4.38 3.64-5.74-2.28-0.56-3.64-2.21-3.64-4.55 0-2.35 1.4-4.27 3.5-5.64l-3.12-0.175v-1.75h18.3v2.03h-13.3c-2.24 1.37-3.78 2.94-3.78 5.15 0 1.89 1.26 3.12 4.24 3.12h12.8v2.03h-13.3c-2.24 1.4-3.78 2.94-3.78 5.15 0 1.89 1.26 3.12 4.24 3.12h12.8v2.03h-13.1c-3.47 0-5.6-1.82-5.6-4.76m0 19.9c0-2.42 1.19-4.2 2.94-5.5h-10.3l0.245-2.03h25.8v1.79l-2.31 0.21c1.54 1.16 2.7 2.94 2.7 5.25 0 4.41-3.75 6.97-9.63 6.97-6.09 0-9.46-2.49-9.46-6.69m17.4-0.665c0-2.1-1.23-3.71-2.94-4.83h-9.63c-1.75 1.23-3.15 2.7-3.15 5.08 0 3.12 2.38 4.94 7.77 4.94 5.32 0 7.95-1.93 7.95-5.18m1.3 27.6v2.1h-24v-2.1h10.5v-11.5h-10.5v-2.1h24v2.1h-11.7v11.5z" fill="#fabe86"/></g><g transform="translate(747 231)"><path d="m0 0c0 20.8-10.6 33.2-29 33.2-18.6 0-29.2-15.2-29.2-35.2 0-20.8 10.9-34.3 31.3-34.3 9.95 0 17.9 3.61 24.4 8.83l-6.59 9.08c-5.72-3.98-10.6-5.84-16.4-5.84-8.7 0-15 4.35-16.2 17.8h41.3c0.124 1.74 0.373 4.35 0.373 6.46m-15.8 3.85h-25.9c0.87 13.1 5.6 18 13.1 18 8.95 0 12.8-6.46 12.8-17.3z" fill="#f4872e"/></g><g transform="translate(640 301)"><path d="m0 0v-11.4c7.83 0 10.4-2.11 10.4-7.96v-26.1c0-10.2 4.23-13.3 11.3-15.3-7.09-1.86-11.3-4.97-11.3-15v-26.1c0-5.84-2.74-7.96-10.4-7.96v-11.4c19.8 0 25.4 6.34 25.4 19.5v24.7c0 7.09 1.86 9.82 8.45 9.82v13.1c-6.59 0-8.45 2.86-8.45 9.95v24.7c0 13.3-5.6 19.5-25.4 19.5" fill="#fabe86"/></g><g transform="translate(611 296)"><path d="m0 0c-5.84 0-9.95-4.23-9.95-9.7 0-5.35 4.1-9.57 9.95-9.57 5.97 0 10.1 4.23 10.1 9.57 0 5.47-4.1 9.7-10.1 9.7m8.08-33.3h-15.9v-65.8h15.9z" fill="#f4872e"/></g><g transform="translate(581 301)"><path d="m0 0c-19.8 0-25.4-6.22-25.4-19.5v-24.7c0-7.09-1.86-9.95-8.33-9.95v-13.1c6.46 0 8.33-2.74 8.33-9.82v-24.7c0-13.2 5.6-19.5 25.4-19.5v11.4c-7.71 0-10.4 2.11-10.4 7.96v26.1c0 10.1-4.23 13.2-11.3 15 7.09 1.99 11.3 5.1 11.3 15.3v26.1c0 5.84 2.61 7.96 10.4 7.96z" fill="#fabe86"/></g><g transform="translate(403 278)"><path d="m0 0c3.11 0 6.84-0.622 10.8-2.49l4.6 10.7c-5.1 2.36-10.4 3.85-17 3.85-15.2 0-23.1-8.95-23.1-20.9v-7.21h-10.7v-11.4h10.7v-54.3h15.9v54.3h14l1.74 11.4h-15.8v6.96c0 6.22 2.36 9.08 8.83 9.08m56.4-14.3c-7.71 0-14-5.22-17.2-14.7l-1.49 12.9h-13.8v-65.8h15.9v35.1c2.49 11.1 6.59 16.9 14.5 16.9 2.24 0 3.86-0.248 5.84-0.746l2.74 15.4c-2.11 0.621-4.23 0.87-6.59 0.87m74.2-33.1c0 20.8-10.6 33.2-29 33.2-18.6 0-29.2-15.2-29.2-35.2 0-20.8 10.9-34.3 31.3-34.3 9.95 0 17.9 3.6 24.4 8.83l-6.59 9.08c-5.72-3.98-10.6-5.84-16.4-5.84-8.7 0-15 4.35-16.2 17.8h41.3c0.124 1.74 0.373 4.35 0.373 6.47m-15.8 3.85h-25.9c0.871 13.1 5.6 18 13.1 18 8.95 0 12.8-6.46 12.8-17.3z" fill="#f4872e"/></g></g></g></svg>
