<svg viewBox="0 0 180 34" fill="currentColor" xmlns="http://www.w3.org/2000/svg">
    <path fill-rule="evenodd" clip-rule="evenodd" d="M53.8825 0.5914H47.9156C47.102 0.5914 46.6499 1.2312 46.6499 1.871V32.2159C46.6499 32.9471 47.2828 33.4041 48.0964 33.4041H51.5319C52.3456 33.4041 52.888 32.9471 52.9784 32.2159L53.34 27.3717L53.7921 21.1565L54.6961 8.81743L55.1482 2.60221L55.2386 1.7796C55.2386 1.3226 54.8769 0.5914 53.8825 0.5914ZM43.0336 23.7157C43.0336 22.8931 42.9432 22.0705 42.7624 21.2479C41.8584 17.7747 38.7845 14.7584 34.3546 14.1186L9.49272 11.7422C8.76946 11.7422 6.87092 10.9196 6.96133 8.90883V8.81743C7.05173 7.53782 7.86539 5.98402 10.0352 5.98402H39.5982C40.4119 5.98402 40.7735 5.61842 41.2255 4.61301L42.1296 2.60221L42.22 2.41941C42.3104 2.23661 42.4008 1.9624 42.4008 1.7796C42.4008 1.1398 41.8584 0.5 41.1351 0.5H10.3064C8.67906 0.5 6.50929 1.1398 4.70115 2.51081C2.89302 3.88181 1.53692 5.98402 1.3561 8.72603V9.54863C1.44651 15.0326 5.87644 18.1403 10.1256 18.4145C13.109 18.5973 33.2697 19.4199 33.2697 19.4199C34.897 19.6027 35.9819 20.1511 36.5244 21.0651C36.886 21.6135 37.0668 22.3447 37.0668 23.1673C37.0668 25.0867 35.2587 26.4577 33.2697 26.5491L2.80261 27.9201C1.98895 27.9201 1.62732 28.2857 1.17529 29.2911L0.180814 31.4847C0.0904068 31.6675 0 31.9417 0 32.1245C0 32.6729 0.361627 33.1299 0.904068 33.3127C0.904068 33.3127 0.994475 33.4041 1.17529 33.4041H32.9081C37.1572 33.4041 40.7735 30.8449 42.3104 27.3717H42.4008H42.1296H42.3104C42.7624 26.2749 43.0336 24.9953 43.0336 23.7157ZM95.1984 0.5914H95.108H58.8548H58.7644H58.674C57.9508 0.5914 57.4083 1.1398 57.4083 1.871V1.96241V4.61301V4.70441C57.4083 5.34422 57.9508 5.98402 58.674 5.98402H58.8548H72.4159V32.2159C72.4159 32.8557 72.9583 33.4955 73.6816 33.4955H77.3882C78.0211 33.4955 78.6539 32.9471 78.6539 32.3073V32.1245L79.0156 27.4631L79.4676 21.2479L80.4621 8.90883L80.7333 6.07542H93.6615C94.4751 6.07542 94.8368 5.70982 95.2888 4.70441L96.1929 2.78501L96.2833 2.60221C96.3737 2.41941 96.4641 2.14521 96.4641 1.96241C96.4641 1.1398 95.9216 0.5914 95.1984 0.5914ZM136.876 27.3717C138.413 30.8449 141.939 33.4955 146.188 33.4955H172.225C178.011 33.5869 179.91 32.3073 180 27.3717C180 26.3663 180 25.2695 179.819 23.9899V23.8071L179.548 21.2479L178.373 10.3712C178.373 9.82283 178.373 9.36583 178.282 8.81743C177.83 6.34962 176.474 4.15601 174.395 2.60221C172.677 1.3226 170.507 0.5914 168.157 0.5914H140.311C139.588 0.5914 139.046 1.1398 139.046 1.871C139.046 2.14521 139.136 2.32801 139.227 2.51081L139.317 2.60221L140.221 4.61301C140.673 5.61842 141.035 5.98402 141.848 5.98402H168.157C170.055 6.07542 171.502 7.08082 171.773 8.72603C171.773 8.90883 171.863 9.09163 171.863 9.27443C171.863 11.1938 170.236 11.7422 168.157 11.8336L145.465 13.9358C140.492 14.5756 137.418 17.7747 136.514 21.1565C136.333 21.8877 136.243 22.6189 136.243 23.3501C136.062 24.8125 136.333 26.1835 136.876 27.3717ZM161.015 27.3717L145.917 26.6405C143.837 26.5491 142.029 25.2695 142.029 23.2587C142.029 22.5275 142.21 21.7963 142.572 21.1565C143.204 20.1511 144.47 19.5113 146.64 19.4199L171.14 17.9575C171.954 17.9575 172.496 18.7801 172.496 19.5113L172.587 21.1565L172.858 25.3609C172.767 26.2749 172.406 26.9147 171.773 27.2803C171.411 27.4631 171.05 27.6459 170.507 27.7373L161.015 27.3717ZM135.881 8.81743C135.791 6.07542 134.525 3.97321 132.898 2.60221C131.18 1.2312 129.101 0.5914 127.202 0.5914H100.713H99.8091C98.9955 0.5914 98.3626 1.2312 98.3626 1.96241V32.0331C98.3626 32.7643 98.9955 33.4041 99.8091 33.4041L103.245 32.6729C104.058 32.6729 104.691 32.0331 104.691 31.3019L104.872 27.2803L105.234 21.0651L105.957 8.72603L106.047 7.35502C106.138 6.71522 106.77 6.07542 107.403 5.98402H127.112C127.654 5.98402 130.095 6.44102 130.457 8.72603C130.457 8.90883 130.547 9.18303 130.547 9.45723C130.547 11.1938 129.011 12.4734 127.745 12.7476C126.57 12.9304 114.817 14.8498 114.817 14.8498C114.274 14.9412 111.743 15.5811 111.743 18.3231C111.743 19.6941 112.466 20.4253 113.28 21.1565C113.913 21.6135 114.545 22.0705 115.178 22.7103L126.841 32.2159C128.287 33.4041 128.016 33.4041 130.095 33.4041H133.35C134.616 33.4041 134.706 31.9417 134.164 31.4847L122.682 21.4307L122.592 21.3393C122.592 21.2479 122.501 21.2479 122.501 21.1565C122.411 20.9737 122.32 20.7909 122.32 20.5167C122.32 19.9683 122.682 19.5113 123.225 19.3285H123.315C126.931 18.1403 125.665 18.5973 130.186 17.0435C133.893 15.7639 136.062 12.7476 136.062 9.09163C135.881 9.09163 135.881 8.90883 135.881 8.81743Z">
    </path>
</svg>