<?xml version="1.0" encoding="UTF-8" standalone="no"?>
<svg
   width="278"
   height="278"
   viewBox="0 0 278 278"
   version="1.1"
   xml:space="preserve"
   style="clip-rule:evenodd;fill-rule:evenodd;stroke-linejoin:round;stroke-miterlimit:2"
   id="svg200"
   sodipodi:docname="Voxit_icon_black.svg"
   inkscape:version="1.2.1 (9c6d41e4, 2022-07-14)"
   xmlns:inkscape="http://www.inkscape.org/namespaces/inkscape"
   xmlns:sodipodi="http://sodipodi.sourceforge.net/DTD/sodipodi-0.dtd"
   xmlns="http://www.w3.org/2000/svg"
   xmlns:svg="http://www.w3.org/2000/svg"><defs
   id="defs204"><clipPath
     clipPathUnits="userSpaceOnUse"
     id="clipPath1446"><rect
       style="opacity:1;fill:#ffffff;fill-opacity:1;stroke:none;stroke-width:3.77953;stroke-linecap:square;stroke-linejoin:round;stroke-miterlimit:0;stop-color:#000000"
       id="rect1448"
       width="300.13983"
       height="292.48755"
       x="157.29709"
       y="50.165016" /></clipPath><clipPath
     clipPathUnits="userSpaceOnUse"
     id="clipPath1450"><g
       id="g1468"
       clip-path="url(#clipPath1446)"
       transform="translate(-462.53845,90.977232)">
        <g
   transform="matrix(8.16422,0,0,8.16422,-2545.11,918.241)"
   id="g1460">
            <path
   d="m 394.73,-87.914 c 0,-2.832 -2.016,-4.592 -4.64,-4.592 -2.608,0 -4.64,1.76 -4.64,4.592 0,2.832 1.984,4.592 4.608,4.592 2.624,0 4.672,-1.76 4.672,-4.592 z m -6.496,0 c 0,-1.52 0.864,-2.224 1.856,-2.224 0.96,0 1.856,0.704 1.856,2.224 0,1.504 -0.912,2.224 -1.888,2.224 -0.992,0 -1.824,-0.72 -1.824,-2.224 z"
   style="fill-rule:nonzero"
   id="path1452" />
            <path
   d="m 401.466,-83.45 h 3.072 l -3.072,-4.432 2.992,-4.496 h -2.96 l -1.44,2.464 -1.712,-2.464 h -3.072 l 3.024,4.368 -2.944,4.56 h 2.96 l 1.44,-2.48 z"
   style="fill-rule:nonzero"
   id="path1454" />
            <path
   d="m 405.594,-83.45 h 2.736 v -8.928 h -2.736 z m 1.376,-9.856 c 0.96,0 1.616,-0.656 1.616,-1.472 0,-0.832 -0.656,-1.488 -1.616,-1.488 -0.976,0 -1.632,0.656 -1.632,1.488 0,0.816 0.656,1.472 1.632,1.472 z"
   style="fill-rule:nonzero"
   id="path1456" />
            <path
   d="m 410.746,-86.554 c 0,2.32 1.296,3.104 3.152,3.104 h 1.392 v -2.32 h -0.976 c -0.608,0 -0.832,-0.224 -0.832,-0.752 v -3.584 h 1.792 v -2.272 h -1.792 v -2.176 h -2.736 v 2.176 h -1.088 v 2.272 h 1.088 z"
   style="fill-rule:nonzero"
   id="path1458" />
        </g>
        <g
   transform="translate(-0.736977,0.404341)"
   id="g1464">
            <path
   d="m 551.775,198.976 c 0.716,0 1.868,-0.51 2.226,-1.183 5.537,-10.406 28.644,-56.308 30.996,-61.254 2.353,-4.945 6.146,-4.642 6.146,-4.642 h 19.734 c 5.315,0.479 2.76,5.902 2.76,5.902 0,0 -39.289,78.611 -45.926,89.401 -6.156,10.008 -15.502,9.583 -15.936,9.581 -0.375,-0.001 -9.133,-0.069 -15.936,-9.581 -7.369,-10.304 -45.927,-89.401 -45.927,-89.401 0,0 -2.555,-5.423 2.761,-5.902 h 19.734 c 0,0 3.793,-0.303 6.145,4.642 2.353,4.946 25.491,50.697 31.028,61.103 0.358,0.673 1.479,1.334 2.195,1.334 z"
   id="path1462" />
        </g>
        <path
   d="m 334.029,64.358 66.786,38.236 c 0,0 24.072,13.785 23.476,47.601 -0.583,33.101 -0.082,67.546 -0.082,67.546 0,0 2.508,29.731 -28.539,47.182 -31.047,17.452 -52.899,30.798 -52.899,30.798 0,0 -14.166,10.298 -32.437,10.577 -18.582,0.284 -78.554,-0.181 -78.554,-0.181 0,0 -14.302,0.158 -25.282,-10.501 -11.462,-10.171 -10.761,-27.417 -10.761,-27.417 V 144 c 0,0 -1.058,-22.271 18.17,-37.684 0.268,-0.214 0.581,-0.367 0.877,-0.542 16.97,-10.044 66.84,-39.394 66.84,-39.394 0,0 23.341,-17.986 52.405,-2.022 z m -24.015,140.596 c 0.808,0 2.109,-0.575 2.513,-1.334 6.25,-11.746 32.332,-63.56 34.988,-69.142 2.655,-5.582 6.937,-5.24 6.937,-5.24 h 22.275 c 6,0.541 3.116,6.661 3.116,6.661 0,0 -44.349,88.735 -51.84,100.914 -6.949,11.297 -17.499,10.817 -17.989,10.816 -0.423,-0.001 -10.309,-0.079 -17.988,-10.816 -8.318,-11.63 -51.841,-100.914 -51.841,-100.914 0,0 -2.884,-6.12 3.117,-6.661 h 22.274 c 0,0 4.282,-0.342 6.937,5.24 2.656,5.582 28.774,57.225 35.024,68.971 0.404,0.76 1.669,1.505 2.477,1.505 z"
   id="path1466" />
    </g></clipPath></defs><sodipodi:namedview
   id="namedview202"
   pagecolor="#ffffff"
   bordercolor="#000000"
   borderopacity="0.25"
   inkscape:showpageshadow="2"
   inkscape:pageopacity="0.0"
   inkscape:pagecheckerboard="0"
   inkscape:deskcolor="#d1d1d1"
   showgrid="false"
   inkscape:zoom="1.1761184"
   inkscape:cx="135.19047"
   inkscape:cy="174.72731"
   inkscape:window-width="1724"
   inkscape:window-height="893"
   inkscape:window-x="0"
   inkscape:window-y="30"
   inkscape:window-maximized="0"
   inkscape:current-layer="g478" />
    
<g
   id="g478"><rect
     style="opacity:1;fill:#ffffff;fill-opacity:1;stroke:none;stroke-width:3.77953;stroke-linecap:square;stroke-linejoin:round;stroke-miterlimit:0;stop-color:#000000"
     id="rect1470"
     width="278"
     height="278"
     x="0"
     y="0" /><path
     d="m 163.01476,21.287221 66.786,38.236 c 0,0 24.072,13.785 23.476,47.600999 -0.583,33.101 -0.082,67.546 -0.082,67.546 0,0 2.508,29.731 -28.539,47.182 -31.047,17.452 -52.899,30.798 -52.899,30.798 0,0 -14.166,10.298 -32.437,10.577 -18.582,0.284 -78.554005,-0.181 -78.554005,-0.181 0,0 -14.302,0.158 -25.282,-10.501 -11.462,-10.171 -10.761,-27.417 -10.761,-27.417 v -124.199 c 0,0 -1.058,-22.270999 18.17,-37.683999 0.268,-0.214 0.581,-0.367 0.877,-0.542 16.97,-10.044 66.840005,-39.394 66.840005,-39.394 0,0 23.341,-17.9860004 52.405,-2.022 z m -24.015,140.595999 c 0.808,0 2.109,-0.575 2.513,-1.334 6.25,-11.746 32.332,-63.559999 34.988,-69.141999 2.655,-5.582 6.937,-5.24 6.937,-5.24 h 22.275 c 6,0.541 3.116,6.661 3.116,6.661 0,0 -44.349,88.734999 -51.84,100.913999 -6.949,11.297 -17.499,10.817 -17.989,10.816 -0.423,-0.001 -10.309,-0.079 -17.988,-10.816 -8.318,-11.63 -51.841005,-100.913999 -51.841005,-100.913999 0,0 -2.884,-6.12 3.117,-6.661 h 22.274 c 0,0 4.282,-0.342 6.937005,5.24 2.656,5.582 28.774,57.224999 35.024,68.970999 0.404,0.76 1.669,1.505 2.477,1.505 z"
     id="path559"
     style="clip-rule:evenodd;fill-rule:evenodd;stroke-linejoin:round;stroke-miterlimit:2" /></g></svg>
