<?xml version="1.0" encoding="UTF-8" standalone="no"?>
<!DOCTYPE svg PUBLIC "-//W3C//DTD SVG 1.1//EN" "http://www.w3.org/Graphics/SVG/1.1/DTD/svg11.dtd">
<svg width="100%" height="100%" viewBox="0 0 1000 350" version="1.1" xmlns="http://www.w3.org/2000/svg" xmlns:xlink="http://www.w3.org/1999/xlink" xml:space="preserve" xmlns:serif="http://www.serif.com/" style="fill-rule:evenodd;clip-rule:evenodd;stroke-linejoin:round;stroke-miterlimit:2;">
    <g>
        <g transform="matrix(8.16422,0,0,8.16422,-2545.11,918.241)">
            <path d="M394.73,-87.914C394.73,-90.746 392.714,-92.506 390.09,-92.506C387.482,-92.506 385.45,-90.746 385.45,-87.914C385.45,-85.082 387.434,-83.322 390.058,-83.322C392.682,-83.322 394.73,-85.082 394.73,-87.914ZM388.234,-87.914C388.234,-89.434 389.098,-90.138 390.09,-90.138C391.05,-90.138 391.946,-89.434 391.946,-87.914C391.946,-86.41 391.034,-85.69 390.058,-85.69C389.066,-85.69 388.234,-86.41 388.234,-87.914Z" style="fill-rule:nonzero;"/>
            <path d="M401.466,-83.45L404.538,-83.45L401.466,-87.882L404.458,-92.378L401.498,-92.378L400.058,-89.914L398.346,-92.378L395.274,-92.378L398.298,-88.01L395.354,-83.45L398.314,-83.45L399.754,-85.93L401.466,-83.45Z" style="fill-rule:nonzero;"/>
            <path d="M405.594,-83.45L408.33,-83.45L408.33,-92.378L405.594,-92.378L405.594,-83.45ZM406.97,-93.306C407.93,-93.306 408.586,-93.962 408.586,-94.778C408.586,-95.61 407.93,-96.266 406.97,-96.266C405.994,-96.266 405.338,-95.61 405.338,-94.778C405.338,-93.962 405.994,-93.306 406.97,-93.306Z" style="fill-rule:nonzero;"/>
            <path d="M410.746,-86.554C410.746,-84.234 412.042,-83.45 413.898,-83.45L415.29,-83.45L415.29,-85.77L414.314,-85.77C413.706,-85.77 413.482,-85.994 413.482,-86.522L413.482,-90.106L415.274,-90.106L415.274,-92.378L413.482,-92.378L413.482,-94.554L410.746,-94.554L410.746,-92.378L409.658,-92.378L409.658,-90.106L410.746,-90.106L410.746,-86.554Z" style="fill-rule:nonzero;"/>
        </g>
        <g transform="matrix(1,0,0,1,-0.736977,0.404341)">
            <path d="M551.775,198.976C552.491,198.976 553.643,198.466 554.001,197.793C559.538,187.387 582.645,141.485 584.997,136.539C587.35,131.594 591.143,131.897 591.143,131.897L610.877,131.897C616.192,132.376 613.637,137.799 613.637,137.799C613.637,137.799 574.348,216.41 567.711,227.2C561.555,237.208 552.209,236.783 551.775,236.781C551.4,236.78 542.642,236.712 535.839,227.2C528.47,216.896 489.912,137.799 489.912,137.799C489.912,137.799 487.357,132.376 492.673,131.897L512.407,131.897C512.407,131.897 516.2,131.594 518.552,136.539C520.905,141.485 544.043,187.236 549.58,197.642C549.938,198.315 551.059,198.976 551.775,198.976Z"/>
        </g>
        <path d="M334.029,64.358L400.815,102.594C400.815,102.594 424.887,116.379 424.291,150.195C423.708,183.296 424.209,217.741 424.209,217.741C424.209,217.741 426.717,247.472 395.67,264.923C364.623,282.375 342.771,295.721 342.771,295.721C342.771,295.721 328.605,306.019 310.334,306.298C291.752,306.582 231.78,306.117 231.78,306.117C231.78,306.117 217.478,306.275 206.498,295.616C195.036,285.445 195.737,268.199 195.737,268.199L195.737,144C195.737,144 194.679,121.729 213.907,106.316C214.175,106.102 214.488,105.949 214.784,105.774C231.754,95.73 281.624,66.38 281.624,66.38C281.624,66.38 304.965,48.394 334.029,64.358ZM310.014,204.954C310.822,204.954 312.123,204.379 312.527,203.62C318.777,191.874 344.859,140.06 347.515,134.478C350.17,128.896 354.452,129.238 354.452,129.238L376.727,129.238C382.727,129.779 379.843,135.899 379.843,135.899C379.843,135.899 335.494,224.634 328.003,236.813C321.054,248.11 310.504,247.63 310.014,247.629C309.591,247.628 299.705,247.55 292.026,236.813C283.708,225.183 240.185,135.899 240.185,135.899C240.185,135.899 237.301,129.779 243.302,129.238L265.576,129.238C265.576,129.238 269.858,128.896 272.513,134.478C275.169,140.06 301.287,191.703 307.537,203.449C307.941,204.209 309.206,204.954 310.014,204.954Z"/>
    </g>
</svg>
